<svg xmlns="http://www.w3.org/2000/svg" xmlns:xlink="http://www.w3.org/1999/xlink" width="1500" height="560"><g transform="translate(-16.049382716049394 -16.049382716049394)"><path d="M216.05 164.1c0-2.77 2.24-5 5-5h550c2.76 0 5 2.23 5 5v306.95c0 2.76-2.24 5-5 5h-550c-2.76 0-5-2.24-5-5z" stroke="#fff" fill="#878477"/><use xlink:href="#a" transform="matrix(1,0,0,1,216.04938271604942,159.0870150403528) translate(241.14388888888888 164.59375)"/><path d="M936.05 164.05c0-2.76 2.24-5 5-5h550c2.76 0 5 2.24 5 5v307c0 2.76-2.24 5-5 5h-550c-2.76 0-5-2.24-5-5z" stroke="#fff" fill="#878477"/><use xlink:href="#a" transform="matrix(1,0,0,1,936.0493827160494,159.04938271604942) translate(241.14388888888888 164.59375)"/><path d="M230.84 221.05c0-2.76 2.24-5 5-5h390c2.76 0 5 2.24 5 5v70c0 2.76-2.24 5-5 5h-390c-2.76 0-5-2.24-5-5z" stroke="#fff" fill="#3aa6dd"/><use xlink:href="#b" transform="matrix(1,0,0,1,230.8419364946676,216.04938271604942) translate(23.97635416666666 47.05078125)"/><use xlink:href="#c" transform="matrix(1,0,0,1,230.8419364946676,216.04938271604942) translate(97.32162326388888 47.05078125)"/><use xlink:href="#d" transform="matrix(1,0,0,1,230.8419364946676,216.04938271604942) translate(126.65973090277777 47.05078125)"/><use xlink:href="#e" transform="matrix(1,0,0,1,230.8419364946676,216.04938271604942) translate(302.6883767361111 47.05078125)"/><use xlink:href="#f" transform="matrix(1,0,0,1,230.8419364946676,216.04938271604942) translate(332.026484375 47.05078125)"/><path d="M231.05 301.05c0-2.76 2.24-5 5-5h390c2.76 0 5 2.24 5 5v70c0 2.76-2.24 5-5 5h-390c-2.76 0-5-2.24-5-5z" stroke="#fff" fill="#ff8f80"/><use xlink:href="#g" transform="matrix(1,0,0,1,231.04938271604942,296.0493827160494) translate(149.33008680555554 53.76953125)"/><path d="M231.05 381.05c0-2.76 2.24-5 5-5h390c2.76 0 5 2.24 5 5v70c0 2.76-2.24 5-5 5h-390c-2.76 0-5-2.24-5-5z" stroke="#fff" fill="#b391b5"/><use xlink:href="#h" transform="matrix(1,0,0,1,231.04938271604942,376.0493827160494) translate(149.33008680555554 53.76953125)"/><path d="M630.84 221.05c0-2.76 2.24-5 5-5h110c2.76 0 5 2.24 5 5v230c0 2.76-2.24 5-5 5h-110c-2.76 0-5-2.24-5-5z" stroke="#fff" fill="#7ab648"/><use xlink:href="#i" transform="matrix(1,0,0,1,630.8419364946676,216.04938271604942) translate(17.33138888888888 133.4375)"/><path d="M1076.05 221.05c0-2.76 2.24-5 5-5h390c2.76 0 5 2.24 5 5v70c0 2.76-2.24 5-5 5h-390c-2.76 0-5-2.24-5-5z" stroke="#fff" fill="#3aa6dd"/><use xlink:href="#b" transform="matrix(1,0,0,1,1076.0493827160494,216.04938271604942) translate(23.97635416666666 47.05078125)"/><use xlink:href="#c" transform="matrix(1,0,0,1,1076.0493827160494,216.04938271604942) translate(97.32162326388888 47.05078125)"/><use xlink:href="#d" transform="matrix(1,0,0,1,1076.0493827160494,216.04938271604942) translate(126.65973090277777 47.05078125)"/><use xlink:href="#e" transform="matrix(1,0,0,1,1076.0493827160494,216.04938271604942) translate(302.6883767361111 47.05078125)"/><use xlink:href="#f" transform="matrix(1,0,0,1,1076.0493827160494,216.04938271604942) translate(332.026484375 47.05078125)"/><path d="M1076.05 301.05c0-2.76 2.24-5 5-5h390c2.76 0 5 2.24 5 5v70c0 2.76-2.24 5-5 5h-390c-2.76 0-5-2.24-5-5z" stroke="#fff" fill="#ff8f80"/><use xlink:href="#g" transform="matrix(1,0,0,1,1076.0493827160494,296.0493827160494) translate(149.33008680555554 53.76953125)"/><path d="M1076.26 381.05c0-2.76 2.24-5 5-5h390c2.76 0 5 2.24 5 5v70c0 2.76-2.24 5-5 5h-390c-2.76 0-5-2.24-5-5z" stroke="#fff" fill="#b391b5"/><use xlink:href="#h" transform="matrix(1,0,0,1,1076.2568289374312,376.0493827160494) translate(149.33008680555554 53.76953125)"/><path d="M956.05 221.05c0-2.76 2.24-5 5-5h110c2.76 0 5 2.24 5 5v230c0 2.76-2.24 5-5 5h-110c-2.76 0-5-2.24-5-5z" stroke="#fff" fill="#7ab648"/><use xlink:href="#i" transform="matrix(1,0,0,1,956.0493827160494,216.04938271604942) translate(17.33138888888888 133.4375)"/><path d="M336.05 161.05c0-2.76 2.24-5 5-5h230c2.76 0 5 2.24 5 5v50c0 2.76-2.24 5-5 5h-230c-2.76 0-5-2.24-5-5z" fill="none"/><use xlink:href="#j" transform="matrix(1,0,0,1,336.0493827160494,156.0493827160494) translate(-12.395833333333343 37.87760416666667)"/><path d="M1076.05 161.05c0-2.76 2.24-5 5-5h230c2.76 0 5 2.24 5 5v50c0 2.76-2.24 5-5 5h-230c-2.76 0-5-2.24-5-5z" fill="none"/><use xlink:href="#k" transform="matrix(1,0,0,1,1076.0493827160494,156.0493827160494) translate(-20.325520833333343 37.87760416666667)"/><path d="M431.05 456.05v85c0 2.76 2.24 5 5 5h835.2c2.77 0 5-2.24 5-5v-85" stroke="#000" stroke-width="4" fill="none"/><path d="M435.68 470.32h-9.27l4.65-14.27z"/><path d="M438.44 472.32h-14.78l5.3-16.27h4.2zm-9.27-4h3.76l-1.88-5.8zM1280.9 470.32h-9.28l4.64-14.27z"/><path d="M1283.64 472.32h-14.77l5.28-16.27h4.2zm-9.27-4h3.77l-1.88-5.8z"/><path d="M750.84 336.05h204.7" stroke="#000" stroke-width="4" fill="none"/><path d="M765.1 340.68l-14.26-4.63 14.27-4.64z"/><path d="M767.1 343.44l-16.26-5.3v-4.2l16.27-5.28zm-9.8-7.4l5.8 1.9v-3.77zM955.55 336.05l-14.27 4.63v-9.27z"/><path d="M956.05 334.1v3.9l-16.77 5.44v-14.78zm-12.77 3.83l5.8-1.88-5.8-1.88z"/><path d="M231.05 416.05h-40v-75c0-2.76 2.24-5 5-5h35" stroke="#000" stroke-width="4" fill="none"/><path d="M231.05 416.05l-14.27 4.63v-9.27z"/><path d="M231.05 413.95v4.2l-16.27 5.3v-14.8zm-12.27 3.98l5.8-1.88-5.8-1.88zM231.05 336.05l-14.27 4.63v-9.27z"/><path d="M231.05 333.95v4.2l-16.27 5.3v-14.8zm-12.27 3.98l5.8-1.88-5.8-1.88z"/><path d="M733.55 281.05c0-2.76 2.24-5 5-5h230c2.76 0 5 2.24 5 5v50c0 2.76-2.24 5-5 5h-230c-2.76 0-5-2.24-5-5z" fill="none"/><use xlink:href="#l" transform="matrix(1,0,0,1,733.5493827160494,276.0493827160494) translate(44.4287109375 24.3359375)"/><use xlink:href="#m" transform="matrix(1,0,0,1,733.5493827160494,276.0493827160494) translate(105.8251953125 24.3359375)"/><use xlink:href="#n" transform="matrix(1,0,0,1,733.5493827160494,276.0493827160494) translate(78.701171875 47.48046875)"/><path d="M616.05 501.05c0-2.76 2.24-5 5-5h430c2.76 0 5 2.24 5 5v50c0 2.76-2.24 5-5 5h-430c-2.76 0-5-2.24-5-5z" fill="none"/><use xlink:href="#o" transform="matrix(1,0,0,1,616.0493827160494,496.0493827160493) translate(60.6103515625 35.908203125)"/><use xlink:href="#p" transform="matrix(1,0,0,1,616.0493827160494,496.0493827160493) translate(97.6318359375 35.908203125)"/><use xlink:href="#q" transform="matrix(1,0,0,1,616.0493827160494,496.0493827160493) translate(192.3583984375 35.908203125)"/><use xlink:href="#r" transform="matrix(1,0,0,1,616.0493827160494,496.0493827160493) translate(229.1748046875 35.908203125)"/><use xlink:href="#s" transform="matrix(1,0,0,1,616.0493827160494,496.0493827160493) translate(309.9755859375 35.908203125)"/><use xlink:href="#t" transform="matrix(1,0,0,1,616.0493827160494,496.0493827160493) translate(341.1083984375 35.908203125)"/><path d="M1016.05 216.05v-75c0-2.76-2.24-5-5-5h-315.2c-2.77 0-5 2.24-5 5v75" fill="none"/><path d="M1018.05 216.05c0 1.1-.9 2-2 2s-2-.9-2-2 .9-2 2-2 2 .9 2 2zm0-16.17c0 1.1-.9 2-2 2s-2-.9-2-2 .9-2 2-2 2 .9 2 2zm0-16.18c0 1.1-.9 2-2 2s-2-.9-2-2 .9-2 2-2 2 .9 2 2zm0-16.17c0 1.1-.9 2-2 2s-2-.9-2-2 .9-2 2-2 2 .9 2 2zm0-16.17c0 1.1-.9 2-2 2s-2-.9-2-2 .9-2 2-2 2 .9 2 2zm-.87-15.3c0 1.1-.9 2-2 2s-2-.9-2-2c0-1.12.9-2 2-2s2 .88 2 2zm-16.17 0c0 1.1-.9 2-2 2s-2-.9-2-2c0-1.12.9-2 2-2s2 .88 2 2zm-16.17 0c0 1.1-.9 2-2 2s-2-.9-2-2c0-1.12.9-2 2-2s2 .88 2 2zm-16.17 0c0 1.1-.9 2-2 2s-2-.9-2-2c0-1.12.9-2 2-2s2 .88 2 2zm-16.17 0c0 1.1-.9 2-2 2-1.12 0-2-.9-2-2 0-1.12.88-2 2-2 1.1 0 2 .88 2 2zm-16.2 0c0 1.1-.88 2-2 2-1.1 0-2-.9-2-2 0-1.12.9-2 2-2 1.12 0 2 .88 2 2zm-16.16 0c0 1.1-.9 2-2 2s-2-.9-2-2c0-1.12.9-2 2-2s2 .88 2 2zm-16.17 0c0 1.1-.9 2-2 2s-2-.9-2-2c0-1.12.9-2 2-2s2 .88 2 2zm-16.18 0c0 1.1-.9 2-2 2s-2-.9-2-2c0-1.12.9-2 2-2s2 .88 2 2zm-16.18 0c0 1.1-.9 2-2 2s-2-.9-2-2c0-1.12.9-2 2-2s2 .88 2 2zm-16.17 0c0 1.1-.9 2-2 2s-2-.9-2-2c0-1.12.9-2 2-2s2 .88 2 2zm-16.18 0c0 1.1-.9 2-2 2s-2-.9-2-2c0-1.12.9-2 2-2s2 .88 2 2zm-16.17 0c0 1.1-.9 2-2 2s-2-.9-2-2c0-1.12.9-2 2-2s2 .88 2 2zm-16.18 0c0 1.1-.9 2-2 2s-2-.9-2-2c0-1.12.9-2 2-2s2 .88 2 2zm-16.17 0c0 1.1-.9 2-2 2s-2-.9-2-2c0-1.12.9-2 2-2s2 .88 2 2zm-16.17 0c0 1.1-.9 2-2 2s-2-.9-2-2c0-1.12.9-2 2-2s2 .88 2 2zm-16.18 0c0 1.1-.9 2-2 2s-2-.9-2-2c0-1.12.9-2 2-2s2 .88 2 2zm-16.17 0c0 1.1-.9 2-2 2s-2-.9-2-2c0-1.12.9-2 2-2s2 .88 2 2zm-16.17 0c0 1.1-.9 2-2 2s-2-.9-2-2c0-1.12.9-2 2-2s2 .88 2 2zm-16.18 0c0 1.1-.9 2-2 2s-2-.9-2-2c0-1.12.9-2 2-2s2 .88 2 2zm-16.17 0c0 1.1-.9 2-2 2s-2-.9-2-2c0-1.12.9-2 2-2s2 .88 2 2zm-.86 15.3c0 1.1-.9 2-2 2s-2-.9-2-2 .9-2 2-2 2 .9 2 2zm0 16.17c0 1.1-.9 2-2 2s-2-.9-2-2 .9-2 2-2 2 .9 2 2zm0 16.17c0 1.1-.9 2-2 2s-2-.9-2-2 .9-2 2-2 2 .9 2 2zm0 16.18c0 1.1-.9 2-2 2s-2-.9-2-2 .9-2 2-2 2 .9 2 2zm0 16.17c0 1.1-.9 2-2 2s-2-.9-2-2 .9-2 2-2 2 .9 2 2z"/><path d="M1027.95 199.85l-9.58 16.2h-4.64l-9.58-16.2 3.44-2.03 8.45 14.3 8.46-14.3zM702.74 199.85l-9.57 16.2h-4.65l-9.58-16.2 3.44-2.03 8.46 14.3 8.46-14.3z"/><path d="M734.05 69.05c0-2.76 2.24-5 5-5h230c2.76 0 5 2.24 5 5v62c0 2.76-2.24 5-5 5h-230c-2.76 0-5-2.24-5-5z" fill="none"/><g><use xlink:href="#u" transform="matrix(1,0,0,1,734.0493827160494,64.0493827160494) translate(24.62890625 18.763671875)"/><use xlink:href="#v" transform="matrix(1,0,0,1,734.0493827160494,64.0493827160494) translate(83.18359375 18.763671875)"/><use xlink:href="#w" transform="matrix(1,0,0,1,734.0493827160494,64.0493827160494) translate(21.1474609375 41.908203125)"/><use xlink:href="#x" transform="matrix(1,0,0,1,734.0493827160494,64.0493827160494) translate(52.2802734375 41.908203125)"/><use xlink:href="#y" transform="matrix(1,0,0,1,734.0493827160494,64.0493827160494) translate(134.5458984375 41.908203125)"/><use xlink:href="#z" transform="matrix(1,0,0,1,734.0493827160494,64.0493827160494) translate(153.3837890625 41.908203125)"/><use xlink:href="#A" transform="matrix(1,0,0,1,734.0493827160494,64.0493827160494) translate(94.1064453125 65.052734375)"/></g><path d="M36.05 361.05c0-2.76 2.24-5 5-5h130c2.76 0 5 2.24 5 5v50c0 2.76-2.24 5-5 5h-130c-2.76 0-5-2.24-5-5z" fill="none"/><g><use xlink:href="#B" transform="matrix(1,0,0,1,36.049382716049394,356.0493827160494) translate(59.43359375 24.3359375)"/><use xlink:href="#C" transform="matrix(1,0,0,1,36.049382716049394,356.0493827160494) translate(11.083984375 47.48046875)"/></g><path d="M403.02 156.05v-35c0-2.76-2.24-5-5-5H196.85c-2.76 0-5 2.24-5 5v215" fill="none"/><path d="M403.02 156.05v-9.82m0-9.8v-19.64m-9.08-.75H374.3m-9.8 0h-19.64m-9.8 0H315.4m-9.8 0h-19.63m-9.82 0h-19.63m-9.82 0h-19.63m-9.82 0h-19.63m-5.77 4.05v19.63m0 9.82v19.63m0 9.8v19.65m0 9.8v19.64m0 9.82v19.62m0 9.82v19.63m0 9.82v19.62m0 9.8v9.83M181.67 318.83l10.18 17.22 10.18-17.22" stroke="#000" stroke-width="2" fill="none"/><path d="M188.05 41.05c0-2.76 2.24-5 5-5h230c2.76 0 5 2.24 5 5v50c0 2.76-2.24 5-5 5h-230c-2.76 0-5-2.24-5-5z" fill="none"/><g><use xlink:href="#D" transform="matrix(1,0,0,1,188.04938271604942,36.049382716049394) translate(0 24.3359375)"/><use xlink:href="#E" transform="matrix(1,0,0,1,188.04938271604942,36.049382716049394) translate(77.626953125 24.3359375)"/><use xlink:href="#F" transform="matrix(1,0,0,1,188.04938271604942,36.049382716049394) translate(149.423828125 24.3359375)"/><use xlink:href="#G" transform="matrix(1,0,0,1,188.04938271604942,36.049382716049394) translate(0 47.48046875)"/></g><defs><path fill="#fff" d="M24-248c93 1 206-16 204 79-1 75-69 88-152 82V0H24v-248zm52 121c47 0 100 7 100-41 0-47-54-39-100-39v80" id="H"/><path fill="#fff" d="M135-150c-39-12-60 13-60 57V0H25l-1-190h47c2 13-1 29 3 40 6-28 27-53 61-41v41" id="I"/><path fill="#fff" d="M110-194c64 0 96 36 96 99 0 64-35 99-97 99-61 0-95-36-95-99 0-62 34-99 96-99zm-1 164c35 0 45-28 45-65 0-40-10-65-43-65-34 0-45 26-45 65 0 36 10 65 43 65" id="J"/><path fill="#fff" d="M190-63c-7 42-38 67-86 67-59 0-84-38-90-98-12-110 154-137 174-36l-49 2c-2-19-15-32-35-32-30 0-35 28-38 64-6 74 65 87 74 30" id="K"/><path fill="#fff" d="M185-48c-13 30-37 53-82 52C43 2 14-33 14-96s30-98 90-98c62 0 83 45 84 108H66c0 31 8 55 39 56 18 0 30-7 34-22zm-45-69c5-46-57-63-70-21-2 6-4 13-4 21h74" id="L"/><path fill="#fff" d="M137-138c1-29-70-34-71-4 15 46 118 7 119 86 1 83-164 76-172 9l43-7c4 19 20 25 44 25 33 8 57-30 24-41C81-84 22-81 20-136c-2-80 154-74 161-7" id="M"/><g id="a"><use transform="matrix(0.05555555555555555,0,0,0.05555555555555555,0,0)" xlink:href="#H"/><use transform="matrix(0.05555555555555555,0,0,0.05555555555555555,13.333333333333332,0)" xlink:href="#I"/><use transform="matrix(0.05555555555555555,0,0,0.05555555555555555,21.11111111111111,0)" xlink:href="#J"/><use transform="matrix(0.05555555555555555,0,0,0.05555555555555555,33.27777777777778,0)" xlink:href="#K"/><use transform="matrix(0.05555555555555555,0,0,0.05555555555555555,44.388888888888886,0)" xlink:href="#L"/><use transform="matrix(0.05555555555555555,0,0,0.05555555555555555,55.5,0)" xlink:href="#M"/><use transform="matrix(0.05555555555555555,0,0,0.05555555555555555,66.61111111111111,0)" xlink:href="#M"/></g><path fill="#fff" d="M462-1121v384h621v228H462V0H167v-1349h939v228H462" id="N"/><path fill="#fff" d="M1100-543c2 361-147 563-501 563-342 0-470-199-470-548v-821h295v818c3 172 13 322 183 320 173-2 198-150 198-330v-808h295v806" id="O"/><path fill="#fff" d="M609-1161c-125 0-218 36-218 153 0 149 166 161 290 196 235 67 484 129 484 421 0 300-239 408-554 411C302 23 93-114 38-367l285-37c32 128 131 205 296 203 143-2 259-31 259-173 0-164-197-172-333-212-218-64-441-131-441-405 0-276 231-379 511-379 299 0 463 114 513 363l-286 29c-28-115-96-183-233-183" id="P"/><path fill="#fff" d="M137 0v-1349h968v228H432v324h612v228H432v341h714V0H137" id="Q"/><g id="b"><use transform="matrix(0.011935763888888888,0,0,0.011935763888888888,0,0)" xlink:href="#N"/><use transform="matrix(0.011935763888888888,0,0,0.011935763888888888,14.669053819444443,0)" xlink:href="#O"/><use transform="matrix(0.011935763888888888,0,0,0.011935763888888888,29.338107638888886,0)" xlink:href="#P"/><use transform="matrix(0.011935763888888888,0,0,0.011935763888888888,44.00716145833333,0)" xlink:href="#Q"/></g><path fill="#fff" d="M89 20l821-1504h228L321 20H89" id="R"/><use transform="matrix(0.011935763888888888,0,0,0.011935763888888888,0,0)" xlink:href="#R" id="c"/><path fill="#fff" d="M872-915c-35-112-84-223-220-223-91 0-156 41-204 116-89 137-87 550 2 688 51 79 116 122 209 122 150 0 197-126 240-244l273 52C1094-168 961 20 656 20 239 20 80-262 80-681c0-418 154-689 568-689 289 0 425 167 496 389" id="S"/><path fill="#fff" d="M616-1102c361 0 521 202 521 560 0 354-171 562-527 562C259 20 92-192 92-542c0-351 169-560 524-560zm-9 930c200-2 236-165 236-370 0-199-27-367-223-367-195 0-233 146-233 367 0 129 18 223 55 282s92 88 165 88" id="T"/><path fill="#fff" d="M934-1102c199 0 220 177 220 381V0H926c-2-260 10-533-4-785-4-72-14-138-83-138-34 0-61 27-81 81s-29 134-29 241V0H501c-2-260 9-533-5-785-4-72-13-138-82-138-46 0-65 47-80 93-21 67-30 155-30 248V0H75c-3-360 6-732-6-1082h209c6 50 3 123 8 175 36-100 83-195 216-195 135 0 166 79 196 196 42-105 93-196 236-196" id="U"/><path fill="#fff" d="M775-193C708-75 621 20 439 20 226 20 106-93 106-306c0-251 170-341 417-346l223-4c4-143-12-264-148-264-103 0-141 58-150 153l-293-14c37-219 194-321 455-321 263 0 418 130 417 390v392c1 84 5 161 89 160 21 0 42-2 62-6v152c-57 15-108 27-180 26-145 0-202-73-217-205h-6zm-256 17c168 0 234-139 227-325-166 4-347-25-347 173 0 94 33 152 120 152" id="V"/><path fill="#fff" d="M768-1103c247 0 336 167 336 416V0H824v-619c-3-164-24-273-171-273-164 0-229 142-229 312V0H143c-4-359 9-736-8-1082h268c7 63 12 146 13 215h4c67-145 160-236 348-236" id="W"/><path fill="#fff" d="M802-909c-3-189-2-383-2-575h281v1248c-1 83 4 168 8 236H817c-9-50-14-117-15-176h-4C735-49 651 20 482 20 191 20 97-238 97-539c0-243 66-432 221-519 50-28 108-42 175-42 162 2 253 78 309 191zm-70 658c91-113 93-462 2-584-46-61-145-100-224-53-96 56-119 190-120 349 0 123 17 214 52 275 46 82 130 115 222 74 25-12 46-33 68-61" id="X"/><path fill="#fff" d="M794-190h353V0H118v-190h395v-1104H223v-190h571v1294" id="Y"/><path fill="#fff" d="M794-190h353V0H118v-190h395v-702H223v-190h571v892zM513-1277v-207h281v207H513" id="Z"/><path fill="#fff" d="M1113-274C1038-96 884 20 626 20c-352 0-526-209-526-566 0-358 185-556 530-556 358 0 496 251 499 615H395c5 180 68 319 245 319 102 0 186-45 208-129zM857-663c-6-177-128-307-315-247-94 30-141 121-145 247h460" id="aa"/><g id="d"><use transform="matrix(0.011935763888888888,0,0,0.011935763888888888,0,0)" xlink:href="#S"/><use transform="matrix(0.011935763888888888,0,0,0.011935763888888888,14.669053819444443,0)" xlink:href="#T"/><use transform="matrix(0.011935763888888888,0,0,0.011935763888888888,29.338107638888886,0)" xlink:href="#U"/><use transform="matrix(0.011935763888888888,0,0,0.011935763888888888,44.00716145833333,0)" xlink:href="#U"/><use transform="matrix(0.011935763888888888,0,0,0.011935763888888888,58.67621527777777,0)" xlink:href="#V"/><use transform="matrix(0.011935763888888888,0,0,0.011935763888888888,73.34526909722221,0)" xlink:href="#W"/><use transform="matrix(0.011935763888888888,0,0,0.011935763888888888,88.01432291666666,0)" xlink:href="#X"/><use transform="matrix(0.011935763888888888,0,0,0.011935763888888888,102.6833767361111,0)" xlink:href="#Y"/><use transform="matrix(0.011935763888888888,0,0,0.011935763888888888,117.35243055555554,0)" xlink:href="#Z"/><use transform="matrix(0.011935763888888888,0,0,0.011935763888888888,132.021484375,0)" xlink:href="#W"/><use transform="matrix(0.011935763888888888,0,0,0.011935763888888888,146.69053819444446,0)" xlink:href="#aa"/></g><use transform="matrix(0.011935763888888888,0,0,0.011935763888888888,0,0)" xlink:href="#R" id="e"/><path fill="#fff" d="M1018 0H770c-49-215-106-420-154-636C567-419 511-214 459 0H211L0-1349h259c35 320 94 617 105 961 37-206 100-393 154-583h195c54 191 118 375 154 583 14-339 68-641 102-961h259" id="ab"/><path fill="#fff" d="M429-1484c1 190-1 388 0 572 54-116 155-191 317-191 300 0 386 257 386 563 0 241-73 429-226 518-49 28-106 42-169 42-162 0-251-81-306-196h-4c-1 59-5 127-15 176H140c4-67 9-153 8-236v-1248h281zm66 648c-93 114-92 466 1 585 35 45 77 79 142 79 64 0 112-31 148-92 69-115 68-440-2-561-39-68-131-111-221-70-25 11-46 32-68 59" id="ac"/><g id="f"><use transform="matrix(0.011935763888888888,0,0,0.011935763888888888,0,0)" xlink:href="#ab"/><use transform="matrix(0.011935763888888888,0,0,0.011935763888888888,14.669053819444443,0)" xlink:href="#aa"/><use transform="matrix(0.011935763888888888,0,0,0.011935763888888888,29.338107638888886,0)" xlink:href="#ac"/></g><path fill="#fff" d="M875-1102c70 0 148 7 206 17v237c-110-17-267-37-359 15-123 69-192 207-192 395V0H250c-10-367 32-789-52-1082h271c19 69 36 149 46 228h4c52-151 151-250 356-248" id="ad"/><path fill="#fff" d="M1108-33c-3 314-178 467-492 467-243 0-400-94-447-291l281-33c17 79 82 141 174 141 176 0 212-155 205-347-2-40 5-80 0-115C773-85 665-12 501-12c-288 0-377-242-377-538 0-242 65-426 223-510 50-26 108-39 175-39 160 0 253 78 307 191h5c1-58 5-125 14-174h266c-12 335-3 703-6 1049zM811-384c25-82 27-259 1-342-30-99-77-180-190-180-172 0-205 171-205 356 0 116 18 202 54 258 48 76 129 107 221 70 62-25 96-86 119-162" id="ae"/><g id="g"><use transform="matrix(0.020616319444444444,0,0,0.020616319444444444,0,0)" xlink:href="#ac"/><use transform="matrix(0.020616319444444444,0,0,0.020616319444444444,25.33745659722222,0)" xlink:href="#ad"/><use transform="matrix(0.020616319444444444,0,0,0.020616319444444444,50.67491319444444,0)" xlink:href="#Z"/><use transform="matrix(0.020616319444444444,0,0,0.020616319444444444,76.01236979166666,0)" xlink:href="#ae"/></g><path fill="#fff" d="M427-171c3 195 2 397 2 596H148V-846c1-83-4-168-8-236h272c10 49 14 118 15 176h4c59-114 151-197 316-197 291 0 385 259 385 560 0 243-65 433-220 521-50 28-109 42-176 42-162-2-253-78-309-191zm69-661c-91 113-92 463-1 586 46 62 145 101 225 54 96-57 118-191 119-351 0-123-18-215-53-276-46-82-128-115-220-74-25 12-48 33-70 61" id="af"/><path fill="#fff" d="M844-1321c-130 0-195 53-191 182v57h443v190H653V0H373v-892H117v-190h256v-83c5-247 162-348 422-349 120-1 232 13 327 28v184c-84-10-183-19-278-19" id="ag"/><path fill="#fff" d="M622-916c-112 2-200 14-200 111 0 90 89 101 168 121 234 58 514 77 514 368C1104-4 751 54 434 5 267-21 161-112 121-270l247-37c24 111 113 145 252 141 114-3 226-12 226-124 0-101-103-113-192-134-225-54-490-76-490-351 0-247 201-328 458-328 245 0 413 88 457 292l-249 26c-16-98-92-133-208-131" id="ah"/><g id="h"><use transform="matrix(0.020616319444444444,0,0,0.020616319444444444,0,0)" xlink:href="#Z"/><use transform="matrix(0.020616319444444444,0,0,0.020616319444444444,25.33745659722222,0)" xlink:href="#af"/><use transform="matrix(0.020616319444444444,0,0,0.020616319444444444,50.67491319444444,0)" xlink:href="#ag"/><use transform="matrix(0.020616319444444444,0,0,0.020616319444444444,76.01236979166666,0)" xlink:href="#ah"/></g><path fill="#fff" d="M919 0L616-493 312 0H0l459-711-418-638h312l263 430 262-430h310L760-711 1229 0H919" id="ai"/><path fill="#fff" d="M305-1169c27 366 9 780 14 1169H99v-1349h347c49 189 108 371 150 564 12 56 15 107 23 166 33-270 117-487 176-730h335V0H908c5-390-13-801 16-1169-52 285-130 541-199 809H507c-70-267-148-525-202-809" id="aj"/><path fill="#fff" d="M616-1349c316 3 526 118 526 426 0 301-201 442-514 447H431V0H136v-1349h480zm-25 646c164 1 254-62 254-215 0-157-99-200-262-202H431v417h160" id="ak"/><g id="i"><use transform="matrix(0.017361111111111112,0,0,0.017361111111111112,0,0)" xlink:href="#ai"/><use transform="matrix(0.017361111111111112,0,0,0.017361111111111112,21.336805555555557,0)" xlink:href="#aj"/><use transform="matrix(0.017361111111111112,0,0,0.017361111111111112,42.673611111111114,0)" xlink:href="#ak"/><use transform="matrix(0.017361111111111112,0,0,0.017361111111111112,64.01041666666667,0)" xlink:href="#ak"/></g><path fill="#fff" d="M319-259c0 68 31 114 93 114 98 0 147-56 211-105v-221c-153 26-304 50-304 212zm584 99c38 0 59-16 91-27l22 75C927-56 834 9 717 30c-65-8-88-81-93-159C538-47 445 30 293 30 154 30 65-56 65-201c0-127 64-194 141-247 107-73 248-95 417-121v-118c9-110-74-169-178-134-46 15-82 54-78 119-52 44-150 61-229 78-15 2-26 3-31 2l-21-54c84-172 266-284 511-284 166 0 266 79 266 240v482c0 44 7 78 40 78" id="al"/><path fill="#fff" d="M63-1470c123-17 231-39 329-80l43 41v1375c9 30 42 35 75 46 18 6 41 10 68 15V0H53v-73c57-11 103-17 136-45 4-5 6-11 6-16v-1132c0-71-5-115-64-124-17-3-40-7-68-10v-70" id="am"/><path fill="#fff" d="M63-888c112-16 215-38 308-72h64v826c0 8 10 18 30 30s54 22 103 31V0H63v-73c45-9 79-20 100-31s32-21 32-30c-1-198 2-400-1-596-1-77-54-79-131-88v-70zm272-483c78 0 138 32 138 110 0 98-68 152-168 152-79 0-137-33-137-111 0-98 69-151 167-151" id="an"/><path fill="#fff" d="M567-138c129-2 186-59 272-116l54 64C782-73 692 30 480 30 279 30 161-92 100-245c-47-118-44-283 5-401 91-217 343-368 656-292 46 11 97 29 124 57-11 97-44 188-79 261l-67-10c-41-109-79-205-209-205-176 0-225 169-225 360 0 155 58 262 160 314 32 15 66 23 102 23" id="ao"/><path fill="#fff" d="M687-616c0-120-53-224-176-224-146 0-179 124-195 260h333c31-1 38-6 38-36zm233 421C797-79 706 34 480 30 277 26 159-94 98-249c-51-132-43-317 18-435 76-147 214-276 431-276 252 0 370 162 379 410-35 35-91 61-140 82H313c10 180 71 330 251 330 142 0 208-61 304-121 21 14 39 43 52 64" id="ap"/><path fill="#fff" d="M893-160c86 0 104-68 151-120v-451c-29-53-51-96-126-97-59 0-102 29-134 86-55 98-67 411 4 514 26 38 55 68 105 68zm667 314c-138 149-341 259-631 259-411 0-664-204-782-509-65-170-88-411-31-604 93-317 308-535 622-630 169-51 381-42 537 16 282 105 436 353 436 742 0 249-113 414-260 522-62 45-138 80-234 80-108 0-147-69-167-162C975-55 936 37 792 30 638 23 568-95 525-229s-31-342 25-455c72-146 175-271 384-276 88-2 126 41 169 91 76-26 120-49 180-91l31 30c-49 175-30 427-30 645 0 71 5 121 71 123 89-19 121-108 145-200 11-43 16-94 16-150-6-412-177-679-578-679-319 0-503 171-588 411-63 177-48 424 12 588 94 254 286 432 616 432 228 0 408-74 535-173" id="aq"/><path fill="#fff" d="M58-888c118-15 207-39 305-72h67v853c5 319-148 458-354 567-103 55-271 23-342-32-33-25-26-35 0-66 38-46 98-94 150-124 40 44 99 82 176 82 89 0 110-86 120-179 29-263 9-587 9-871 0-76-56-78-131-88v-70zm276-483c78 0 137 32 137 110 0 99-68 152-167 152-79 0-138-32-138-111 0-98 70-151 168-151" id="ar"/><path fill="#fff" d="M597-138c150 0 207-123 207-278 0-165-34-294-136-352-26-15-55-20-86-20-92 0-144 50-217 110v460c77 42 148 80 232 80zM365-802c94-76 190-158 340-158 237 0 320 206 320 453 0 216-140 349-275 449-65 48-150 88-251 88-145 0-261-74-374-126v-1170c-1-70 1-115-57-125-16-3-38-6-65-9v-70c117-19 223-41 318-80 13 13 30 27 44 41v707" id="as"/><path fill="#fff" d="M418-773c69-91 151-187 299-187 60 0 116 20 158 44 4 3 6 12 6 26 0 113-38 223-71 311h-73c-7-74-23-146-67-181-43-34-105-7-137 22-48 43-80 95-113 167v437c0 10 14 20 42 31s72 21 135 30V0H48v-73c88-20 132-40 132-61-1-195-2-395-2-586 0-82-49-99-130-98v-70c121-16 215-37 315-72l42 42" id="at"/><path fill="#fff" d="M315-266c87 0 144 46 144 135 0 110-72 171-183 171-89 0-145-44-145-135 0-109 76-171 184-171" id="au"/><path fill="#fff" d="M608-1485c121-11 249-37 339-65l38 37c1 424-6 852 1 1273 1 44 4 85 54 78 27-4 45-13 73-25l28 73C1051-58 957 4 844 30c-48 0-79-58-92-175C662-60 594 30 431 30 250 30 151-100 97-245c-43-117-45-275 3-393 72-177 212-322 451-322 86 0 134 17 194 59-1-141 2-293-1-431-2-78-58-77-136-84v-69zM450-183c118 65 220-16 295-86v-437c-42-68-108-122-210-122-175 0-230 145-230 330 0 149 51 263 145 315" id="av"/><path fill="#fff" d="M242 277c-43 25-112 41-163 58l-44-32 701-1847c43-25 107-40 159-56l45 29" id="aw"/><path fill="#fff" d="M814-960c151 0 221 99 221 256v570c8 28 38 30 68 42 17 7 39 12 65 19V0H663v-73c48-13 82-24 102-33s30-19 30-28v-439c-2-110-6-210-113-205-117 5-174 73-262 139v505c0 10 11 20 34 31s56 21 99 30V0H48v-73c44-11 77-22 99-31s33-19 33-30c-2-399 10-806-2-1200-2-63-65-55-130-66v-70c124-17 229-40 328-80l44 41v727c119-96 229-178 394-178" id="ax"/><path fill="#fff" d="M547-95c182-3 211-159 211-345 0-159-46-293-136-363-28-21-59-32-93-32-183 0-211 174-211 362 0 156 53 282 142 349 28 20 56 29 87 29zm197-829c193 78 317 304 248 570C945-174 822-46 648 10 468 68 279-10 189-105 84-216 25-453 102-636c75-177 215-324 456-324 68 0 130 13 186 36" id="ay"/><path fill="#fff" d="M1328-960c158 0 237 93 237 256v570c0 9 10 19 31 28s57 20 110 33V0h-497v-73c47-13 83-21 111-47 3-4 5-9 5-14v-469c-3-102-2-192-105-185-95 7-161 63-227 125v529c7 28 33 31 62 42 16 6 38 12 64 19V0H636v-73c47-13 85-21 112-47 3-4 5-9 5-14v-469c-3-100 4-193-98-185s-158 61-235 125v529c0 10 10 20 30 31s52 21 95 30V0H48v-73c44-11 77-22 99-31s33-19 33-30c-1-205 9-417-2-618-3-61-66-54-130-66v-70c120-13 219-36 315-72l42 42 11 124c100-81 183-166 347-166 125 0 197 59 215 166 101-81 185-166 350-166" id="az"/><g id="j"><use transform="matrix(0.013020833333333334,0,0,0.013020833333333334,0,0)" xlink:href="#al"/><use transform="matrix(0.013020833333333334,0,0,0.013020833333333334,13.3203125,0)" xlink:href="#am"/><use transform="matrix(0.013020833333333334,0,0,0.013020833333333334,21.328125,0)" xlink:href="#an"/><use transform="matrix(0.013020833333333334,0,0,0.013020833333333334,29.3359375,0)" xlink:href="#ao"/><use transform="matrix(0.013020833333333334,0,0,0.013020833333333334,41.484375,0)" xlink:href="#ap"/><use transform="matrix(0.013020833333333334,0,0,0.013020833333333334,54.388020833333336,0)" xlink:href="#aq"/><use transform="matrix(0.013020833333333334,0,0,0.013020833333333334,77.7734375,0)" xlink:href="#ar"/><use transform="matrix(0.013020833333333334,0,0,0.013020833333333334,85.45572916666667,0)" xlink:href="#al"/><use transform="matrix(0.013020833333333334,0,0,0.013020833333333334,98.77604166666667,0)" xlink:href="#as"/><use transform="matrix(0.013020833333333334,0,0,0.013020833333333334,113.09895833333334,0)" xlink:href="#as"/><use transform="matrix(0.013020833333333334,0,0,0.013020833333333334,127.421875,0)" xlink:href="#ap"/><use transform="matrix(0.013020833333333334,0,0,0.013020833333333334,140.32552083333334,0)" xlink:href="#at"/><use transform="matrix(0.013020833333333334,0,0,0.013020833333333334,152.16145833333334,0)" xlink:href="#au"/><use transform="matrix(0.013020833333333334,0,0,0.013020833333333334,159.34895833333334,0)" xlink:href="#av"/><use transform="matrix(0.013020833333333334,0,0,0.013020833333333334,174.296875,0)" xlink:href="#ap"/><use transform="matrix(0.013020833333333334,0,0,0.013020833333333334,187.20052083333334,0)" xlink:href="#aw"/><use transform="matrix(0.013020833333333334,0,0,0.013020833333333334,199.89583333333334,0)" xlink:href="#ax"/><use transform="matrix(0.013020833333333334,0,0,0.013020833333333334,215.390625,0)" xlink:href="#ay"/><use transform="matrix(0.013020833333333334,0,0,0.013020833333333334,229.38802083333334,0)" xlink:href="#az"/><use transform="matrix(0.013020833333333334,0,0,0.013020833333333334,251.88802083333334,0)" xlink:href="#ap"/></g><path fill="#fff" d="M547-808c-63-73-243-61-239 50 3 86 72 111 134 148 111 66 258 113 318 230 15 28 22 60 22 97C778-32 571 47 316 26 231 19 152-9 90-43c-26-75-10-216 7-293l81 11c29 127 98 232 242 232 90 0 142-26 142-112 0-138-143-173-241-229-81-46-168-92-212-173-33-59-21-140 9-197 90-174 455-200 628-79 8 74-29 165-58 217l-69-8c-17-59-43-101-72-134" id="aA"/><path fill="#fff" d="M1137-33c-109 17-285 88-359-10L420-517v383c3 28 26 30 51 41 14 6 34 12 59 20V0H48v-73c44-11 77-21 99-30s33-19 33-31v-1132c0-72-3-116-63-125-17-3-40-6-69-9v-70c124-19 232-37 328-80l44 41v975l263-235c22-20 37-35 43-47 22-42-32-40-71-41v-73h447v73c-71 9-125 31-175 69L623-558l361 409c28 39 78 50 147 43" id="aB"/><path fill="#fff" d="M480-153c90 0 143-40 212-75l44 73C647-91 572-44 511-14S401 30 366 30C216 30 155-87 155-244v-561H34L5-841l78-89h72v-209l202-149 38 33v325h305l36 36c-27 45-62 92-101 124-61-29-146-39-240-35v468c3 90 5 184 85 184" id="aC"/><path fill="#fff" d="M681-138c187 0 198-281 154-453-28-109-88-199-212-199-97 0-134 64-203 112v450c84 45 144 90 261 90zM414-795c110-97 268-221 458-137 142 63 208 220 208 432 0 207-102 348-215 451-45 41-101 79-174 79-122 0-189-60-271-113v428c0 11 13 21 38 32s68 21 131 30v73H48v-73c44-11 77-21 99-31s33-20 33-31c-2-364 10-736-3-1095-2-61-59-64-129-68v-70c122-14 218-35 315-72l42 42" id="aD"/><g id="k"><use transform="matrix(0.013020833333333334,0,0,0.013020833333333334,0,0)" xlink:href="#as"/><use transform="matrix(0.013020833333333334,0,0,0.013020833333333334,14.322916666666668,0)" xlink:href="#ay"/><use transform="matrix(0.013020833333333334,0,0,0.013020833333333334,28.3203125,0)" xlink:href="#as"/><use transform="matrix(0.013020833333333334,0,0,0.013020833333333334,42.64322916666667,0)" xlink:href="#aq"/><use transform="matrix(0.013020833333333334,0,0,0.013020833333333334,66.02864583333334,0)" xlink:href="#ar"/><use transform="matrix(0.013020833333333334,0,0,0.013020833333333334,73.71093750000001,0)" xlink:href="#al"/><use transform="matrix(0.013020833333333334,0,0,0.013020833333333334,87.03125000000001,0)" xlink:href="#as"/><use transform="matrix(0.013020833333333334,0,0,0.013020833333333334,101.35416666666669,0)" xlink:href="#as"/><use transform="matrix(0.013020833333333334,0,0,0.013020833333333334,115.67708333333336,0)" xlink:href="#ap"/><use transform="matrix(0.013020833333333334,0,0,0.013020833333333334,128.58072916666669,0)" xlink:href="#at"/><use transform="matrix(0.013020833333333334,0,0,0.013020833333333334,140.41666666666669,0)" xlink:href="#au"/><use transform="matrix(0.013020833333333334,0,0,0.013020833333333334,147.60416666666669,0)" xlink:href="#av"/><use transform="matrix(0.013020833333333334,0,0,0.013020833333333334,162.55208333333334,0)" xlink:href="#ap"/><use transform="matrix(0.013020833333333334,0,0,0.013020833333333334,175.45572916666669,0)" xlink:href="#aw"/><use transform="matrix(0.013020833333333334,0,0,0.013020833333333334,188.15104166666669,0)" xlink:href="#av"/><use transform="matrix(0.013020833333333334,0,0,0.013020833333333334,203.09895833333334,0)" xlink:href="#ap"/><use transform="matrix(0.013020833333333334,0,0,0.013020833333333334,216.00260416666669,0)" xlink:href="#aA"/><use transform="matrix(0.013020833333333334,0,0,0.013020833333333334,227.17447916666669,0)" xlink:href="#aB"/><use transform="matrix(0.013020833333333334,0,0,0.013020833333333334,241.875,0)" xlink:href="#aC"/><use transform="matrix(0.013020833333333334,0,0,0.013020833333333334,251.74479166666669,0)" xlink:href="#ay"/><use transform="matrix(0.013020833333333334,0,0,0.013020833333333334,265.7421875,0)" xlink:href="#aD"/></g><path d="M764-137c215-118 232-634 88-861-52-83-127-162-248-162-247 0-296 255-296 519 0 222 74 401 204 495 73 53 173 53 252 9zm295-954c108 134 178 390 117 620C1115-240 973-70 755 5 628 49 478 35 371-23 179-126 55-328 55-612c0-306 150-515 359-623 138-71 341-75 475-1 67 36 123 86 170 145" id="aE"/><path d="M1151-1228c-5 98-22 200-38 288h-75c-17-67-17-142-52-186-8-10-19-14-33-14H706v995c11 31 44 40 80 53 20 7 46 13 77 19V0H300v-73c62-13 113-25 149-57 5-5 7-10 7-15v-995H202c-54 11-63 62-87 111-13 26-24 59-39 98L3-958c8-100 24-211 40-302h1070" id="aF"/><path d="M575-586c-52 3-101 0-145-10v462c0 8 10 18 32 30s57 22 106 31V0H43v-73c45-9 80-20 103-31s34-21 34-30v-1023c-46 7-93 12-137 19l-13-92c295-67 842-131 974 124 18 37 28 76 28 119 0 205-123 310-279 367l315 436c31 48 78 71 161 59l15 73c-85 26-183 60-284 66-41 2-83-27-98-55zm205-370c0-187-150-240-350-226v476c33 6 54 7 89 7 174 2 261-90 261-257" id="aG"/><path d="M1027-857c-52 12-85 23-103 68L641-82c-29 63-99 93-172 112L116-789c-20-44-45-54-103-68v-73h453v73c-41 6-70 8-94 23-16 11-12 26-4 45l215 503 202-503c24-56-33-59-81-68v-73h323v73" id="aH"/><path d="M573-1235c192 0 340 65 340 253 0 133-60 207-124 294-132 180-286 337-444 514h399c55-5 71-54 85-100 9-29 14-63 17-100l80 19L911 0H112L83-74c170-202 325-373 465-577 59-86 113-150 113-273 0-114-41-199-156-199-107 0-155 87-142 204-60 29-140 54-218 64l-35-68c21-154 152-233 285-283 56-21 115-29 178-29" id="aI"/><g id="l"><use transform="matrix(0.009765625,0,0,0.009765625,0,0)" xlink:href="#aE"/><use transform="matrix(0.009765625,0,0,0.009765625,12.44140625,0)" xlink:href="#aF"/><use transform="matrix(0.009765625,0,0,0.009765625,24.04296875,0)" xlink:href="#aG"/><use transform="matrix(0.009765625,0,0,0.009765625,36.142578125,0)" xlink:href="#aH"/><use transform="matrix(0.009765625,0,0,0.009765625,46.298828125,0)" xlink:href="#aI"/></g><path d="M733-120c149 2 180-100 223-210l73 26c-9 101-22 215-41 304H43v-73c45-9 80-20 103-31s34-21 34-30v-991c0-8-10-18-32-30s-57-23-105-32v-73h881l40 32c-8 91-21 200-41 278h-75c-3-62-12-110-25-142s-32-48-57-48H430v405h398l33 35c-26 43-55 94-92 126-60-70-209-53-339-55v445c3 49 47 53 98 60 50 7 142 4 205 4" id="aJ"/><path d="M814-960c151 0 221 99 221 256v570c8 28 38 30 68 42 17 7 39 12 65 19V0H663v-73c48-13 82-24 102-33s30-19 30-28v-454c-3-102-4-195-105-190-125 7-188 76-270 139v505c0 10 11 20 34 31s56 21 99 30V0H48v-73c44-11 77-22 99-31s33-19 33-30c-1-205 6-414-2-617-2-64-63-55-130-67v-70c119-13 221-35 315-72l42 42 11 144c121-102 230-186 398-186" id="aK"/><path d="M567-138c129-2 186-59 272-116l54 64C782-73 692 30 480 30 279 30 161-92 100-245c-47-118-44-283 5-401 91-217 343-368 656-292 46 11 97 29 124 57-11 97-44 188-79 261l-67-10c-41-109-79-205-209-205-176 0-225 169-225 360 0 155 58 262 160 314 32 15 66 23 102 23" id="aL"/><path d="M418-773c69-91 151-187 299-187 60 0 116 20 158 44 4 3 6 12 6 26 0 113-38 223-71 311h-73c-7-74-23-146-67-181-43-34-105-7-137 22-48 43-80 95-113 167v437c0 10 14 20 42 31s72 21 135 30V0H48v-73c88-20 132-40 132-61-1-195-2-395-2-586 0-82-49-99-130-98v-70c121-16 215-37 315-72l42 42" id="aM"/><path d="M1027-857c-52 13-92 21-110 68L583 75c-71 175-154 321-316 394-97 43-242 24-311-23-29-19-21-25-1-56 32-50 83-111 130-145 52 34 119 57 188 33 96-33 146-148 186-255L124-789c-20-44-53-54-111-68v-73h453v73c-40 6-69 7-90 23-15 12-7 27 0 45l206 502c67-176 140-348 204-527-5-37-47-32-86-43v-73h327v73" id="aN"/><path d="M681-138c187 0 198-281 154-453-28-109-88-199-212-199-97 0-134 64-203 112v450c84 45 144 90 261 90zM414-795c110-97 268-221 458-137 142 63 208 220 208 432 0 207-102 348-215 451-45 41-101 79-174 79-122 0-189-60-271-113v428c0 11 13 21 38 32s68 21 131 30v73H48v-73c44-11 77-21 99-31s33-20 33-31c-2-364 10-736-3-1095-2-61-59-64-129-68v-70c122-14 218-35 315-72l42 42" id="aO"/><path d="M480-153c90 0 143-40 212-75l44 73C647-91 572-44 511-14S401 30 366 30C216 30 155-87 155-244v-561H34L5-841l78-89h72v-209l202-149 38 33v325h305l36 36c-27 45-62 92-101 124-61-29-146-39-240-35v468c3 90 5 184 85 184" id="aP"/><path d="M687-616c0-120-53-224-176-224-146 0-179 124-195 260h333c31-1 38-6 38-36zm233 421C797-79 706 34 480 30 277 26 159-94 98-249c-51-132-43-317 18-435 76-147 214-276 431-276 252 0 370 162 379 410-35 35-91 61-140 82H313c10 180 71 330 251 330 142 0 208-61 304-121 21 14 39 43 52 64" id="aQ"/><path d="M608-1485c121-11 249-37 339-65l38 37c1 424-6 852 1 1273 1 44 4 85 54 78 27-4 45-13 73-25l28 73C1051-58 957 4 844 30c-48 0-79-58-92-175C662-60 594 30 431 30 250 30 151-100 97-245c-43-117-45-275 3-393 72-177 212-322 451-322 86 0 134 17 194 59-1-141 2-293-1-431-2-78-58-77-136-84v-69zM450-183c118 65 220-16 295-86v-437c-42-68-108-122-210-122-175 0-230 145-230 330 0 149 51 263 145 315" id="aR"/><g id="m"><use transform="matrix(0.009765625,0,0,0.009765625,0,0)" xlink:href="#aJ"/><use transform="matrix(0.009765625,0,0,0.009765625,10.5078125,0)" xlink:href="#aK"/><use transform="matrix(0.009765625,0,0,0.009765625,22.12890625,0)" xlink:href="#aL"/><use transform="matrix(0.009765625,0,0,0.009765625,31.240234375,0)" xlink:href="#aM"/><use transform="matrix(0.009765625,0,0,0.009765625,40.1171875,0)" xlink:href="#aN"/><use transform="matrix(0.009765625,0,0,0.009765625,50.2734375,0)" xlink:href="#aO"/><use transform="matrix(0.009765625,0,0,0.009765625,61.455078125,0)" xlink:href="#aP"/><use transform="matrix(0.009765625,0,0,0.009765625,68.857421875,0)" xlink:href="#aQ"/><use transform="matrix(0.009765625,0,0,0.009765625,78.53515625,0)" xlink:href="#aR"/></g><path d="M200-1152c-37-23-85-34-137-35v-73h346c47 5 54 46 71 84l368 835c133-294 261-590 397-881 10-22 19-38 49-38h339v73c-46 1-90 13-128 28l10 1025c0 8 13 18 37 30s60 22 108 31V0h-522v-73c45-9 82-20 108-31s39-21 39-30l-8-813L853 0h-94L343-945l-8 811c0 8 11 18 33 30s57 22 105 31V0H53v-73c46-9 80-20 103-31s34-21 34-30" id="aS"/><path d="M319-259c0 68 31 114 93 114 98 0 147-56 211-105v-221c-153 26-304 50-304 212zm584 99c38 0 59-16 91-27l22 75C927-56 834 9 717 30c-65-8-88-81-93-159C538-47 445 30 293 30 154 30 65-56 65-201c0-127 64-194 141-247 107-73 248-95 417-121v-118c9-110-74-169-178-134-46 15-82 54-78 119-52 44-150 61-229 78-15 2-26 3-31 2l-21-54c84-172 266-284 511-284 166 0 266 79 266 240v482c0 44 7 78 40 78" id="aT"/><g id="n"><use transform="matrix(0.009765625,0,0,0.009765625,0,0)" xlink:href="#aS"/><use transform="matrix(0.009765625,0,0,0.009765625,16.93359375,0)" xlink:href="#aQ"/><use transform="matrix(0.009765625,0,0,0.009765625,26.611328125,0)" xlink:href="#aP"/><use transform="matrix(0.009765625,0,0,0.009765625,34.013671875,0)" xlink:href="#aT"/><use transform="matrix(0.009765625,0,0,0.009765625,44.00390625,0)" xlink:href="#aR"/><use transform="matrix(0.009765625,0,0,0.009765625,55.21484375,0)" xlink:href="#aT"/><use transform="matrix(0.009765625,0,0,0.009765625,65.205078125,0)" xlink:href="#aP"/><use transform="matrix(0.009765625,0,0,0.009765625,72.607421875,0)" xlink:href="#aT"/></g><path d="M729-120c148 2 174-101 217-210l73 26c-10 100-22 215-41 304H43v-73c45-9 80-20 103-31s34-21 34-30v-991c0-8-10-18-32-30s-57-23-105-32v-73h525v73c-45 9-80 20-103 31s-35 22-35 31v931c9 77 99 74 186 74h113" id="aU"/><path d="M644-1140c-115-71-322-32-312 118 8 121 112 163 201 211 153 82 329 146 407 303 48 97 22 239-26 316C821-43 638 56 388 23 288 10 187-22 116-68c-27-84-10-232 8-316l71 5c44 110 112 202 218 247 31 13 64 19 98 19 132 0 232-64 232-196 0-191-180-234-315-303-146-75-316-135-316-348 0-157 120-245 251-296 162-62 445-37 543 58 4 63-40 124-67 170-6 11-14 18-19 23l-66-6c-26-57-62-99-110-129" id="aV"/><g id="o"><use transform="matrix(0.009765625,0,0,0.009765625,0,0)" xlink:href="#aF"/><use transform="matrix(0.009765625,0,0,0.009765625,11.6015625,0)" xlink:href="#aU"/><use transform="matrix(0.009765625,0,0,0.009765625,21.787109375,0)" xlink:href="#aV"/></g><g id="p"><use transform="matrix(0.009765625,0,0,0.009765625,0,0)" xlink:href="#aJ"/><use transform="matrix(0.009765625,0,0,0.009765625,10.5078125,0)" xlink:href="#aK"/><use transform="matrix(0.009765625,0,0,0.009765625,22.12890625,0)" xlink:href="#aL"/><use transform="matrix(0.009765625,0,0,0.009765625,31.240234375,0)" xlink:href="#aM"/><use transform="matrix(0.009765625,0,0,0.009765625,40.1171875,0)" xlink:href="#aN"/><use transform="matrix(0.009765625,0,0,0.009765625,50.2734375,0)" xlink:href="#aO"/><use transform="matrix(0.009765625,0,0,0.009765625,61.455078125,0)" xlink:href="#aP"/><use transform="matrix(0.009765625,0,0,0.009765625,68.857421875,0)" xlink:href="#aQ"/><use transform="matrix(0.009765625,0,0,0.009765625,78.53515625,0)" xlink:href="#aR"/></g><path d="M739-574c-55-66-187-55-309-55v495c14 28 49 33 86 44 21 7 49 11 82 17V0H43v-73c45-9 80-20 103-31s34-21 34-30v-991c0-8-10-18-32-30s-57-23-105-32v-73h891l38 32c-6 92-19 200-39 278h-77c-2-62-10-110-24-142s-33-48-58-48H430v405h367l36 35c-25 46-57 93-94 126" id="aW"/><path d="M63-888c112-16 215-38 308-72h64v826c0 8 10 18 30 30s54 22 103 31V0H63v-73c45-9 79-20 100-31s32-21 32-30c-1-198 2-400-1-596-1-77-54-79-131-88v-70zm272-483c78 0 138 32 138 110 0 98-68 152-168 152-79 0-137-33-137-111 0-98 69-151 167-151" id="aX"/><path d="M63-1470c123-17 231-39 329-80l43 41v1375c9 30 42 35 75 46 18 6 41 10 68 15V0H53v-73c57-11 103-17 136-45 4-5 6-11 6-16v-1132c0-71-5-115-64-124-17-3-40-7-68-10v-70" id="aY"/><g id="q"><use transform="matrix(0.009765625,0,0,0.009765625,0,0)" xlink:href="#aW"/><use transform="matrix(0.009765625,0,0,0.009765625,10.146484375,0)" xlink:href="#aX"/><use transform="matrix(0.009765625,0,0,0.009765625,16.15234375,0)" xlink:href="#aY"/><use transform="matrix(0.009765625,0,0,0.009765625,22.158203125,0)" xlink:href="#aQ"/></g><path d="M547-808c-63-73-243-61-239 50 3 86 72 111 134 148 111 66 258 113 318 230 15 28 22 60 22 97C778-32 571 47 316 26 231 19 152-9 90-43c-26-75-10-216 7-293l81 11c29 127 98 232 242 232 90 0 142-26 142-112 0-138-143-173-241-229-81-46-168-92-212-173-33-59-21-140 9-197 90-174 455-200 628-79 8 74-29 165-58 217l-69-8c-17-59-43-101-72-134" id="aZ"/><path d="M711-894c-26 44-61 91-98 124-49-23-101-36-188-35v673c6 15 21 18 43 24 49 14 96 23 159 35V0H53v-73c46-8 80-17 101-29s31-22 31-30v-673H66l-28-36 78-89h69c-10-311 117-483 323-587 113-57 285-18 362 38 42 31 5 63-13 85-35 43-83 82-131 111-48-60-94-101-170-112-90 11-103 95-120 190-12 65-12 183-11 275h249" id="ba"/><g id="r"><use transform="matrix(0.009765625,0,0,0.009765625,0,0)" xlink:href="#aF"/><use transform="matrix(0.009765625,0,0,0.009765625,11.6015625,0)" xlink:href="#aM"/><use transform="matrix(0.009765625,0,0,0.009765625,20.478515625,0)" xlink:href="#aT"/><use transform="matrix(0.009765625,0,0,0.009765625,30.46875,0)" xlink:href="#aK"/><use transform="matrix(0.009765625,0,0,0.009765625,42.08984375,0)" xlink:href="#aZ"/><use transform="matrix(0.009765625,0,0,0.009765625,50.46875,0)" xlink:href="#ba"/><use transform="matrix(0.009765625,0,0,0.009765625,57.265625,0)" xlink:href="#aQ"/><use transform="matrix(0.009765625,0,0,0.009765625,66.943359375,0)" xlink:href="#aM"/></g><g id="s"><use transform="matrix(0.009765625,0,0,0.009765625,0,0)" xlink:href="#aH"/><use transform="matrix(0.009765625,0,0,0.009765625,10.15625,0)" xlink:href="#aX"/><use transform="matrix(0.009765625,0,0,0.009765625,16.162109375,0)" xlink:href="#aT"/></g><path d="M63 0v-73c45-9 80-20 103-31s34-21 34-30v-991c0-8-10-18-32-30s-57-23-105-32v-73h525v73c-45 9-80 20-103 31s-35 22-35 31v991c0 8 11 18 33 30s57 22 105 31V0H63" id="bb"/><path d="M835-895c0-223-165-306-405-287v1048c11 29 46 34 83 44 22 6 50 11 85 17V0H43v-73c45-9 80-20 103-31s34-21 34-30v-1024c-47 6-93 13-137 20l-13-92c266-56 702-113 915 31 82 54 142 136 142 263 0 233-144 351-331 404-86 24-194 10-261-18l-31-105c48 22 79 30 139 30 154 0 232-108 232-270" id="bc"/><g id="t"><use transform="matrix(0.009765625,0,0,0.009765625,0,0)" xlink:href="#bb"/><use transform="matrix(0.009765625,0,0,0.009765625,6.54296875,0)" xlink:href="#bc"/><use transform="matrix(0.009765625,0,0,0.009765625,17.880859375,0)" xlink:href="#aW"/><use transform="matrix(0.009765625,0,0,0.009765625,28.02734375,0)" xlink:href="#aV"/></g><g id="u"><use transform="matrix(0.009765625,0,0,0.009765625,0,0)" xlink:href="#bb"/><use transform="matrix(0.009765625,0,0,0.009765625,6.54296875,0)" xlink:href="#aK"/><use transform="matrix(0.009765625,0,0,0.009765625,18.1640625,0)" xlink:href="#aX"/><use transform="matrix(0.009765625,0,0,0.009765625,24.169921875,0)" xlink:href="#aP"/><use transform="matrix(0.009765625,0,0,0.009765625,31.572265625,0)" xlink:href="#aX"/><use transform="matrix(0.009765625,0,0,0.009765625,37.578125,0)" xlink:href="#aT"/><use transform="matrix(0.009765625,0,0,0.009765625,47.568359375,0)" xlink:href="#aY"/></g><path d="M747-550l-165-465-150 465h315zM392-430l-96 289c-7 21 1 36 24 45s62 17 117 23V0H0v-73c73-17 133-13 151-68l349-1066c60-51 139-84 222-110l420 1176c16 49 64 60 124 68V0H769v-73c52-3 87-10 105-20s24-26 17-48L789-430H392" id="bd"/><path d="M618-902c125-11 230-32 335-58l37 46c1 227-3 457 1 682 1 43 7 81 55 72 14-3 39-12 73-27l25 75C1059-61 962 2 858 30c-84-6-95-83-108-166C647-55 571 30 408 30 227 30 155-88 155-279c-1-160 4-328-1-485-2-65-55-59-120-68v-70c123-10 226-26 326-58l35 46v572c2 110 10 203 116 199 111-4 169-63 239-119-2-165 6-340-4-499-4-64-57-67-128-71v-70" id="be"/><path d="M814-960c151 0 221 99 221 256v570c8 28 38 30 68 42 17 7 39 12 65 19V0H663v-73c48-13 82-24 102-33s30-19 30-28v-439c-2-110-6-210-113-205-117 5-174 73-262 139v505c0 10 11 20 34 31s56 21 99 30V0H48v-73c44-11 77-22 99-31s33-19 33-30c-2-399 10-806-2-1200-2-63-65-55-130-66v-70c124-17 229-40 328-80l44 41v727c119-96 229-178 394-178" id="bf"/><path d="M547-95c182-3 211-159 211-345 0-159-46-293-136-363-28-21-59-32-93-32-183 0-211 174-211 362 0 156 53 282 142 349 28 20 56 29 87 29zm197-829c193 78 317 304 248 570C945-174 822-46 648 10 468 68 279-10 189-105 84-216 25-453 102-636c75-177 215-324 456-324 68 0 130 13 186 36" id="bg"/><g id="v"><use transform="matrix(0.009765625,0,0,0.009765625,0,0)" xlink:href="#bd"/><use transform="matrix(0.009765625,0,0,0.009765625,12.568359375,0)" xlink:href="#be"/><use transform="matrix(0.009765625,0,0,0.009765625,23.828125,0)" xlink:href="#aP"/><use transform="matrix(0.009765625,0,0,0.009765625,31.23046875,0)" xlink:href="#bf"/><use transform="matrix(0.009765625,0,0,0.009765625,42.8515625,0)" xlink:href="#aQ"/><use transform="matrix(0.009765625,0,0,0.009765625,52.529296875,0)" xlink:href="#aK"/><use transform="matrix(0.009765625,0,0,0.009765625,64.150390625,0)" xlink:href="#aP"/><use transform="matrix(0.009765625,0,0,0.009765625,71.552734375,0)" xlink:href="#aX"/><use transform="matrix(0.009765625,0,0,0.009765625,77.55859375,0)" xlink:href="#aL"/><use transform="matrix(0.009765625,0,0,0.009765625,86.669921875,0)" xlink:href="#aT"/><use transform="matrix(0.009765625,0,0,0.009765625,96.66015625,0)" xlink:href="#aP"/><use transform="matrix(0.009765625,0,0,0.009765625,104.0625,0)" xlink:href="#aX"/><use transform="matrix(0.009765625,0,0,0.009765625,110.068359375,0)" xlink:href="#bg"/><use transform="matrix(0.009765625,0,0,0.009765625,120.56640625,0)" xlink:href="#aK"/></g><g id="w"><use transform="matrix(0.009765625,0,0,0.009765625,0,0)" xlink:href="#aH"/><use transform="matrix(0.009765625,0,0,0.009765625,10.15625,0)" xlink:href="#aX"/><use transform="matrix(0.009765625,0,0,0.009765625,16.162109375,0)" xlink:href="#aT"/></g><path d="M764-137c215-118 232-634 88-861-52-83-127-162-248-162-247 0-296 255-296 519 0 222 74 401 204 495 73 53 173 53 252 9zm464 267c66 0 93-40 140-70l49 65c-41 74-93 141-157 187-39 28-85 15-132 0-185-61-307-202-472-286C348 50 175-135 94-368c-55-158-51-348 6-503 59-162 167-290 314-364 138-70 341-74 475-1 189 104 309 307 309 589 0 233-97 398-219 517-45 43-94 77-147 104 107 38 198 102 304 139 31 11 62 17 92 17" id="bh"/><g id="x"><use transform="matrix(0.009765625,0,0,0.009765625,0,0)" xlink:href="#bh"/><use transform="matrix(0.009765625,0,0,0.009765625,12.44140625,0)" xlink:href="#be"/><use transform="matrix(0.009765625,0,0,0.009765625,23.701171875,0)" xlink:href="#aQ"/><use transform="matrix(0.009765625,0,0,0.009765625,33.37890625,0)" xlink:href="#aZ"/><use transform="matrix(0.009765625,0,0,0.009765625,41.7578125,0)" xlink:href="#aP"/><use transform="matrix(0.009765625,0,0,0.009765625,49.16015625,0)" xlink:href="#aX"/><use transform="matrix(0.009765625,0,0,0.009765625,55.166015625,0)" xlink:href="#bg"/><use transform="matrix(0.009765625,0,0,0.009765625,65.6640625,0)" xlink:href="#aK"/></g><path d="M603-1321c-118 0-118 184-92 299 9 37 23 75 40 114 90-56 158-129 163-263 3-81-41-150-111-150zM325-373c-6 202 162 299 357 242 35-10 69-27 100-46-137-132-263-285-364-454-61 74-90 142-93 258zm488-345c24-26 55-58 89-74h481l31 44c-35 42-71 92-114 126-41-19-105-45-157-48 27 36 33 69 33 127 0 116-57 210-116 288 74 63 149 154 293 122l16 73c-88 37-192 74-295 90-72-16-130-67-193-117C785-22 665 30 513 30 242 30 65-84 65-352c0-71 22-141 67-212s115-141 211-212c-54-122-106-304-40-447 60-130 179-227 361-227 174 0 287 80 287 246 0 146-108 230-195 308-46 41-95 72-146 104 96 160 217 305 344 434 23-41 41-87 41-144 0-104-54-173-153-181" id="bi"/><use transform="matrix(0.009765625,0,0,0.009765625,0,0)" xlink:href="#bi" id="y"/><path d="M1455-857c-46 14-87 19-100 62L1134-59c-19 56-86 74-144 89L735-554 532-59c-21 54-81 76-141 89L122-795c-17-35-58-51-109-62v-73h453v73c-45 6-77 10-102 27-12 9-13 19-8 35l150 472 239-607h77l251 607c48-165 102-325 147-492-11-33-49-32-90-42v-73h325v73" id="bj"/><g id="z"><use transform="matrix(0.009765625,0,0,0.009765625,0,0)" xlink:href="#bd"/><use transform="matrix(0.009765625,0,0,0.009765625,12.568359375,0)" xlink:href="#aK"/><use transform="matrix(0.009765625,0,0,0.009765625,24.189453125,0)" xlink:href="#aZ"/><use transform="matrix(0.009765625,0,0,0.009765625,32.568359375,0)" xlink:href="#bj"/><use transform="matrix(0.009765625,0,0,0.009765625,46.9140625,0)" xlink:href="#aQ"/><use transform="matrix(0.009765625,0,0,0.009765625,56.591796875,0)" xlink:href="#aM"/></g><path d="M366-651c0 389 93 697 289 891l-54 75C291 148 106-154 106-623c0-475 196-791 495-977l54 75c-188 194-289 489-289 874" id="bk"/><path d="M80-1599c309 168 495 468 495 937 0 476-196 792-495 978l-54-75C214 47 315-248 315-634c0-388-93-697-289-890" id="bl"/><g id="A"><use transform="matrix(0.009765625,0,0,0.009765625,0,0)" xlink:href="#bk"/><use transform="matrix(0.009765625,0,0,0.009765625,6.630859375,0)" xlink:href="#aV"/><use transform="matrix(0.009765625,0,0,0.009765625,16.884765625,0)" xlink:href="#aS"/><use transform="matrix(0.009765625,0,0,0.009765625,33.818359375,0)" xlink:href="#bc"/><use transform="matrix(0.009765625,0,0,0.009765625,45.15625,0)" xlink:href="#bl"/></g><path d="M53-472c11-39 30-79 46-113h543l33 31c-11 38-31 80-46 114H85" id="bm"/><path d="M1093-169C944-46 755 79 489 14 221-51 55-249 55-582c0-346 170-557 421-660 197-81 486-47 619 54-4 69-58 131-89 182-8 12-16 20-22 25l-63-14c-66-94-139-170-293-170-187 0-263 170-303 345-27 119-22 309 14 413 53 156 146 272 337 279 72 3 129-14 177-37v-305c-2-43-34-49-73-62-21-7-51-13-88-20v-73h498v73c-58 15-97 31-97 82v301" id="bn"/><path d="M548-164c182 81 360-23 471-115 19 17 36 48 52 68C944-89 816 30 586 30c-256 0-407-160-486-356-64-157-57-393 4-550 101-260 325-453 694-406 98 12 191 44 254 92-9 71-56 133-86 187-7 12-14 21-19 26l-65-14c-57-98-128-167-260-167-252 0-314 258-314 535 0 231 84 390 240 459" id="bo"/><g id="B"><use transform="matrix(0.009765625,0,0,0.009765625,0,0)" xlink:href="#bd"/><use transform="matrix(0.009765625,0,0,0.009765625,12.568359375,0)" xlink:href="#aJ"/><use transform="matrix(0.009765625,0,0,0.009765625,23.076171875,0)" xlink:href="#aV"/><use transform="matrix(0.009765625,0,0,0.009765625,33.330078125,0)" xlink:href="#bm"/><use transform="matrix(0.009765625,0,0,0.009765625,40.439453125,0)" xlink:href="#bn"/><use transform="matrix(0.009765625,0,0,0.009765625,52.470703125,0)" xlink:href="#bo"/><use transform="matrix(0.009765625,0,0,0.009765625,63.6328125,0)" xlink:href="#aS"/></g><path d="M242 277c-43 25-112 41-163 58l-44-32 701-1847c43-25 107-40 159-56l45 29" id="bp"/><path d="M578-1290c408 0 643 208 643 614 0 370-167 586-463 660C711-4 664 0 619 0H43v-73c45-9 80-20 103-31s34-21 34-30v-1023l-137 19-13-92c159-36 354-60 548-60zm375 653c-1-354-149-573-523-545v1015c7 64 80 60 152 60 213 0 307-172 354-361 12-50 17-106 17-169" id="bq"/><g id="C"><use transform="matrix(0.009765625,0,0,0.009765625,0,0)" xlink:href="#aJ"/><use transform="matrix(0.009765625,0,0,0.009765625,10.5078125,0)" xlink:href="#aK"/><use transform="matrix(0.009765625,0,0,0.009765625,22.12890625,0)" xlink:href="#bp"/><use transform="matrix(0.009765625,0,0,0.009765625,31.650390625,0)" xlink:href="#bq"/><use transform="matrix(0.009765625,0,0,0.009765625,44.384765625,0)" xlink:href="#aQ"/><use transform="matrix(0.009765625,0,0,0.009765625,54.0625,0)" xlink:href="#aL"/><use transform="matrix(0.009765625,0,0,0.009765625,63.173828125,0)" xlink:href="#aM"/><use transform="matrix(0.009765625,0,0,0.009765625,72.05078125,0)" xlink:href="#aN"/><use transform="matrix(0.009765625,0,0,0.009765625,82.20703125,0)" xlink:href="#aO"/><use transform="matrix(0.009765625,0,0,0.009765625,93.388671875,0)" xlink:href="#aP"/><use transform="matrix(0.009765625,0,0,0.009765625,100.791015625,0)" xlink:href="#aX"/><use transform="matrix(0.009765625,0,0,0.009765625,106.796875,0)" xlink:href="#bg"/><use transform="matrix(0.009765625,0,0,0.009765625,117.294921875,0)" xlink:href="#aK"/></g><path d="M1264-52c-81 23-166 66-263 66-47 0-70-13-94-43L430-625v491c0 8 10 18 32 30s57 22 106 31V0H43v-73c45-9 80-20 103-31s34-21 34-30v-991c0-8-10-18-32-30s-57-23-105-32v-73h525v73c-45 9-80 20-103 31s-35 22-35 31v466l372-439c19-27 39-38 36-68-18-17-49-17-88-21v-73h450v73c-71 7-117 23-155 62L616-676l482 511c30 41 90 50 159 40" id="br"/><g id="D"><use transform="matrix(0.009765625,0,0,0.009765625,0,0)" xlink:href="#bd"/><use transform="matrix(0.009765625,0,0,0.009765625,12.568359375,0)" xlink:href="#aJ"/><use transform="matrix(0.009765625,0,0,0.009765625,23.076171875,0)" xlink:href="#aV"/><use transform="matrix(0.009765625,0,0,0.009765625,33.330078125,0)" xlink:href="#bm"/><use transform="matrix(0.009765625,0,0,0.009765625,40.439453125,0)" xlink:href="#br"/><use transform="matrix(0.009765625,0,0,0.009765625,52.8125,0)" xlink:href="#aQ"/><use transform="matrix(0.009765625,0,0,0.009765625,62.490234375,0)" xlink:href="#aN"/></g><g id="E"><use transform="matrix(0.009765625,0,0,0.009765625,0,0)" xlink:href="#aR"/><use transform="matrix(0.009765625,0,0,0.009765625,11.2109375,0)" xlink:href="#aQ"/><use transform="matrix(0.009765625,0,0,0.009765625,20.888671875,0)" xlink:href="#aM"/><use transform="matrix(0.009765625,0,0,0.009765625,29.765625,0)" xlink:href="#aX"/><use transform="matrix(0.009765625,0,0,0.009765625,35.771484375,0)" xlink:href="#aH"/><use transform="matrix(0.009765625,0,0,0.009765625,45.927734375,0)" xlink:href="#aQ"/><use transform="matrix(0.009765625,0,0,0.009765625,55.60546875,0)" xlink:href="#aR"/></g><path d="M1328-960c158 0 237 93 237 256v570c0 9 10 19 31 28s57 20 110 33V0h-497v-73c47-13 83-21 111-47 3-4 5-9 5-14v-469c-3-102-2-192-105-185-95 7-161 63-227 125v529c7 28 33 31 62 42 16 6 38 12 64 19V0H636v-73c47-13 85-21 112-47 3-4 5-9 5-14v-469c-3-100 4-193-98-185s-158 61-235 125v529c0 10 10 20 30 31s52 21 95 30V0H48v-73c44-11 77-22 99-31s33-19 33-30c-1-205 9-417-2-618-3-61-66-54-130-66v-70c120-13 219-36 315-72l42 42 11 124c100-81 183-166 347-166 125 0 197 59 215 166 101-81 185-166 350-166" id="bs"/><g id="F"><use transform="matrix(0.009765625,0,0,0.009765625,0,0)" xlink:href="#ba"/><use transform="matrix(0.009765625,0,0,0.009765625,6.796875,0)" xlink:href="#aM"/><use transform="matrix(0.009765625,0,0,0.009765625,15.673828125,0)" xlink:href="#bg"/><use transform="matrix(0.009765625,0,0,0.009765625,26.171875,0)" xlink:href="#bs"/></g><g id="G"><use transform="matrix(0.009765625,0,0,0.009765625,0,0)" xlink:href="#bc"/><use transform="matrix(0.009765625,0,0,0.009765625,11.337890625,0)" xlink:href="#aT"/><use transform="matrix(0.009765625,0,0,0.009765625,21.328125,0)" xlink:href="#aZ"/><use transform="matrix(0.009765625,0,0,0.009765625,29.70703125,0)" xlink:href="#aZ"/><use transform="matrix(0.009765625,0,0,0.009765625,38.0859375,0)" xlink:href="#bj"/><use transform="matrix(0.009765625,0,0,0.009765625,52.431640625,0)" xlink:href="#bg"/><use transform="matrix(0.009765625,0,0,0.009765625,62.9296875,0)" xlink:href="#aM"/><use transform="matrix(0.009765625,0,0,0.009765625,71.806640625,0)" xlink:href="#aR"/></g></defs></g></svg>