<svg xmlns="http://www.w3.org/2000/svg" xmlns:xlink="http://www.w3.org/1999/xlink" width="1400" height="800"><g transform="translate(20 -40)"><path d="M40 65c0-2.76 2.24-5 5-5h1310c2.76 0 5 2.24 5 5v290c0 2.76-2.24 5-5 5H45c-2.76 0-5-2.24-5-5z" stroke="#fff" fill="#3aa6dd"/><use xlink:href="#a" transform="matrix(1,0,0,1,40,60) translate(660.005 156.625)"/><path d="M40 345c0-2.76 2.24-5 5-5h1310c2.76 0 5 2.24 5 5v470c0 2.76-2.24 5-5 5H45c-2.76 0-5-2.24-5-5z" stroke="#fff" fill="#a3d977"/><use xlink:href="#a" transform="matrix(1,0,0,1,40,340) translate(660.005 248.5)"/><path d="M560 425c0-2.76 2.24-5 5-5h310c2.76 0 5 2.24 5 5v110c0 2.76-2.24 5-5 5H565c-2.76 0-5-2.24-5-5z" stroke="#fff" fill="#de5f85"/><use xlink:href="#b" transform="matrix(1,0,0,1,560,420) translate(100.50500000000001 66.13888888888889)"/><path d="M560 105c0-2.76 2.24-5 5-5h310c2.76 0 5 2.24 5 5v110c0 2.76-2.24 5-5 5H565c-2.76 0-5-2.24-5-5z" stroke="#fff" fill="#ef8d22"/><use xlink:href="#c" transform="matrix(1,0,0,1,560,100) translate(101.325987654321 66.13888888888889)"/><path d="M1000 285c0-2.76 2.24-5 5-5h310c2.76 0 5 2.24 5 5v110c0 2.76-2.24 5-5 5h-310c-2.76 0-5-2.24-5-5z" stroke="#fff" fill="#fcc438"/><use xlink:href="#d" transform="matrix(1,0,0,1,1000,280) translate(126.38771604938272 66.13888888888889)"/><path d="M1000 665c0-2.76 2.24-5 5-5h310c2.76 0 5 2.24 5 5v110c0 2.76-2.24 5-5 5h-310c-2.76 0-5-2.24-5-5z" stroke="#fff" fill="#c92d39"/><use xlink:href="#e" transform="matrix(1,0,0,1,1000,660) translate(122.06672839506173 66.13888888888889)"/><path d="M880 160h275c2.76 0 5 2.24 5 5v115" stroke="#000" stroke-width="2" fill="none"/><path d="M1160 280l-4.64-14.27h9.28z"/><path d="M1161.05 280h-2.1l-4.96-15.27h12zm-4.3-13.27l3.25 10.03 3.26-10.03z"/><path d="M720 220v199" stroke="#000" stroke-width="2" fill="none"/><path d="M720 419l-4.64-14.27h9.28z"/><path d="M720.73 420h-1.46L714 403.73h12zm-4-14.27l3.27 10.03 3.26-10.03z"/><path d="M1160 400v259" stroke="#000" stroke-width="2" fill="none"/><path d="M1160 659l-4.64-14.27h9.28z"/><path d="M1160.73 660h-1.46l-5.28-16.27h12zm-4-14.27l3.27 10.03 3.26-10.03z"/><path d="M720 540v146.7c0 2.76 2.24 5 5 5h274" stroke="#000" stroke-width="2" fill="none"/><path d="M999 691.7l-14.27 4.63v-9.27z"/><path d="M1000 690.97v1.45l-16.27 5.3v-12.03zm-14.27 4l10.03-3.27-10.03-3.26z"/><path d="M1100 225c0-2.76 2.24-5 5-5h230c2.76 0 5 2.24 5 5v50c0 2.76-2.24 5-5 5h-230c-2.76 0-5-2.24-5-5z" fill="none"/><use xlink:href="#f" transform="matrix(1,0,0,1,1100,220) translate(72.626953125 39.19053819444444)"/><path d="M480 265c0-2.76 2.24-5 5-5h230c2.76 0 5 2.24 5 5v50c0 2.76-2.24 5-5 5H485c-2.76 0-5-2.24-5-5z" fill="none"/><use xlink:href="#g" transform="matrix(1,0,0,1,480,260) translate(18.250868055555543 39.19053819444444)"/><use xlink:href="#h" transform="matrix(1,0,0,1,480,260) translate(99.94791666666666 39.19053819444444)"/><use xlink:href="#i" transform="matrix(1,0,0,1,480,260) translate(127.54991319444443 39.19053819444444)"/><use xlink:href="#j" transform="matrix(1,0,0,1,480,260) translate(195.39279513888889 39.19053819444444)"/><path d="M460 545c0-2.76 2.24-5 5-5h230c2.76 0 5 2.24 5 5v144.3c0 2.76-2.24 5-5 5H465c-2.76 0-5-2.24-5-5z" fill="none"/><use xlink:href="#k" transform="matrix(1,0,0,1,460,540) translate(96.09592013888891 50.68793402777778)"/><use xlink:href="#l" transform="matrix(1,0,0,1,460,540) translate(46.66449652777777 86.69053819444446)"/><use xlink:href="#m" transform="matrix(1,0,0,1,460,540) translate(192.37630208333334 86.69053819444446)"/><use xlink:href="#n" transform="matrix(1,0,0,1,460,540) translate(98.90625 122.69314236111111)"/><use xlink:href="#o" transform="matrix(1,0,0,1,460,540) translate(213.64366319444446 122.69314236111111)"/><path d="M1180 457.85c0-2.76 2.24-5 5-5h170c2.76 0 5 2.24 5 5v144.3c0 2.76-2.24 5-5 5h-170c-2.76 0-5-2.24-5-5z" fill="none"/><use xlink:href="#p" transform="matrix(1,0,0,1,1180,452.8515625) translate(0 68.68923611111111)"/><use xlink:href="#q" transform="matrix(1,0,0,1,1180,452.8515625) translate(79.78298611111111 68.68923611111111)"/><use xlink:href="#r" transform="matrix(1,0,0,1,1180,452.8515625) translate(0 104.69184027777777)"/><path d="M880 480h210.78c2.76 0 5-2.24 5-5v-74.5" stroke="#000" stroke-width="2" fill="none"/><path d="M1100.42 414.77h-9.27l4.63-14.27z"/><path d="M1101.8 415.77h-12.03l5.12-15.77h1.77zm-9.28-2h6.52l-3.26-10.03z"/><path d="M860 385c0-2.76 2.24-5 5-5h230c2.76 0 5 2.24 5 5v144.3c0 2.76-2.24 5-5 5H865c-2.76 0-5-2.24-5-5z" fill="none"/><use xlink:href="#s" transform="matrix(1,0,0,1,860,380) translate(83.53407118055556 86.69053819444444)"/><path d="M100 425c0-2.76 2.24-5 5-5h310c2.76 0 5 2.24 5 5v110c0 2.76-2.24 5-5 5H105c-2.76 0-5-2.24-5-5z" stroke="#fff" fill="#ff8f80"/><use xlink:href="#t" transform="matrix(1,0,0,1,100,420) translate(36.122283950617295 66.13888888888889)"/><use xlink:href="#u" transform="matrix(1,0,0,1,100,420) translate(81.06055555555557 66.13888888888889)"/><use xlink:href="#v" transform="matrix(1,0,0,1,100,420) translate(187.44327160493827 66.13888888888889)"/><path d="M560 480H420" stroke="#000" stroke-width="2" fill="none"/><path d="M434.27 484.64L420 480l14.27-4.64z"/><path d="M435.27 486L420 481.06v-2.1l15.27-4.96zm-12.03-6l10.03 3.26v-6.52z"/><path d="M380 425c0-2.76 2.24-5 5-5h230c2.76 0 5 2.24 5 5v50c0 2.76-2.24 5-5 5H385c-2.76 0-5-2.24-5-5z" fill="none"/><use xlink:href="#w" transform="matrix(1,0,0,1,380,420) translate(76.00694444444444 39.19053819444444)"/><use xlink:href="#x" transform="matrix(1,0,0,1,380,420) translate(137.69748263888889 39.19053819444444)"/><path d="M999 749.44H264.7c-2.77 0-5-2.24-5-5V541" stroke="#000" stroke-width="2" fill="none"/><path d="M999 749.44l-14.27 4.63v-9.27z"/><path d="M1000 748.7v1.46l-16.27 5.3V743.4zm-14.27 4l10.03-3.26-10.03-3.26zM264.33 555.27h-9.27L259.7 541z"/><path d="M265.7 556.27h-12.02l5.3-16.27h1.44zm-9.27-2h6.52l-3.26-10.03z"/><path d="M0 604.7c0-2.76 2.24-5 5-5h230c2.76 0 5 2.24 5 5V749c0 2.76-2.24 5-5 5H5c-2.76 0-5-2.24-5-5z" fill="none"/><g><use xlink:href="#y" transform="matrix(1,0,0,1,0,599.703125) translate(113.9453125 68.68923611111111)"/><use xlink:href="#z" transform="matrix(1,0,0,1,0,599.703125) translate(192.37630208333331 68.68923611111111)"/><use xlink:href="#A" transform="matrix(1,0,0,1,0,599.703125) translate(44.35546875 104.69184027777777)"/><use xlink:href="#B" transform="matrix(1,0,0,1,0,599.703125) translate(156.02430555555554 104.69184027777777)"/></g><path d="M0 65c0-2.76 2.24-5 5-5h230c2.76 0 5 2.24 5 5v50c0 2.76-2.24 5-5 5H5c-2.76 0-5-2.24-5-5z" fill="none"/><g><use xlink:href="#C" transform="matrix(1,0,0,1,0,60) translate(52.03703703703704 35.333333333333336)"/></g><path d="M0 345c0-2.76 2.24-5 5-5h230c2.76 0 5 2.24 5 5v50c0 2.76-2.24 5-5 5H5c-2.76 0-5-2.24-5-5z" fill="none"/><g><use xlink:href="#D" transform="matrix(1,0,0,1,0,340) translate(47.48148148148148 35.333333333333336)"/></g><defs><path fill="#fff" d="M88-194c31-1 46 15 58 34l-1-101h50l1 261h-48c-2-10 0-23-3-31C134-8 116 4 84 4 32 4 16-41 15-95c0-56 19-97 73-99zm17 164c33 0 40-30 41-66 1-37-9-64-41-64s-38 30-39 65c0 43 13 65 39 65" id="E"/><path fill="#fff" d="M133-34C117-15 103 5 69 4 32 3 11-16 11-54c-1-60 55-63 116-61 1-26-3-47-28-47-18 1-26 9-28 27l-52-2c7-38 36-58 82-57s74 22 75 68l1 82c-1 14 12 18 25 15v27c-30 8-71 5-69-32zm-48 3c29 0 43-24 42-57-32 0-66-3-65 30 0 17 8 27 23 27" id="F"/><path fill="#fff" d="M185-48c-13 30-37 53-82 52C43 2 14-33 14-96s30-98 90-98c62 0 83 45 84 108H66c0 31 8 55 39 56 18 0 30-7 34-22zm-45-69c5-46-57-63-70-21-2 6-4 13-4 21h74" id="G"/><path fill="#fff" d="M220-157c-53 9-28 100-34 157h-49v-107c1-27-5-49-29-50C55-147 81-57 75 0H25l-1-190h47c2 12-1 28 3 38 10-53 101-56 108 0 13-22 24-43 59-42 82 1 51 116 57 194h-49v-107c-1-25-5-48-29-50" id="H"/><path fill="#fff" d="M110-194c64 0 96 36 96 99 0 64-35 99-97 99-61 0-95-36-95-99 0-62 34-99 96-99zm-1 164c35 0 45-28 45-65 0-40-10-65-43-65-34 0-45 26-45 65 0 36 10 65 43 65" id="I"/><path fill="#fff" d="M135-194c87-1 58 113 63 194h-50c-7-57 23-157-34-157-59 0-34 97-39 157H25l-1-190h47c2 12-1 28 3 38 12-26 28-41 61-42" id="J"/><g id="b"><use transform="matrix(0.08641975308641975,0,0,0.08641975308641975,0,0)" xlink:href="#E"/><use transform="matrix(0.08641975308641975,0,0,0.08641975308641975,18.925925925925924,0)" xlink:href="#F"/><use transform="matrix(0.08641975308641975,0,0,0.08641975308641975,36.20987654320987,0)" xlink:href="#G"/><use transform="matrix(0.08641975308641975,0,0,0.08641975308641975,53.49382716049382,0)" xlink:href="#H"/><use transform="matrix(0.08641975308641975,0,0,0.08641975308641975,81.14814814814814,0)" xlink:href="#I"/><use transform="matrix(0.08641975308641975,0,0,0.08641975308641975,100.07407407407406,0)" xlink:href="#J"/></g><path fill="#fff" d="M190-63c-7 42-38 67-86 67-59 0-84-38-90-98-12-110 154-137 174-36l-49 2c-2-19-15-32-35-32-30 0-35 28-38 64-6 74 65 87 74 30" id="K"/><path fill="#fff" d="M25 0v-261h50V0H25" id="L"/><path fill="#fff" d="M25-224v-37h50v37H25zM25 0v-190h50V0H25" id="M"/><g id="c"><use transform="matrix(0.08641975308641975,0,0,0.08641975308641975,0,0)" xlink:href="#K"/><use transform="matrix(0.08641975308641975,0,0,0.08641975308641975,17.28395061728395,0)" xlink:href="#H"/><use transform="matrix(0.08641975308641975,0,0,0.08641975308641975,44.93827160493827,0)" xlink:href="#E"/><use transform="matrix(0.08641975308641975,0,0,0.08641975308641975,63.86419753086418,0)" xlink:href="#L"/><use transform="matrix(0.08641975308641975,0,0,0.08641975308641975,72.50617283950616,0)" xlink:href="#M"/><use transform="matrix(0.08641975308641975,0,0,0.08641975308641975,81.14814814814814,0)" xlink:href="#J"/><use transform="matrix(0.08641975308641975,0,0,0.08641975308641975,100.07407407407406,0)" xlink:href="#G"/></g><path d="M135-150c-39-12-60 13-60 57V0H25l-1-190h47c2 13-1 29 3 40 6-28 27-53 61-41v41" id="N"/><path d="M185-48c-13 30-37 53-82 52C43 2 14-33 14-96s30-98 90-98c62 0 83 45 84 108H66c0 31 8 55 39 56 18 0 30-7 34-22zm-45-69c5-46-57-63-70-21-2 6-4 13-4 21h74" id="O"/><path d="M135-194c53 0 70 44 70 98 0 56-19 98-73 100-31 1-45-17-59-34 3 33 2 69 2 105H25l-1-265h48c2 10 0 23 3 31 11-24 29-35 60-35zM114-30c33 0 39-31 40-66 0-38-9-64-40-64-56 0-55 130 0 130" id="P"/><path d="M110-194c64 0 96 36 96 99 0 64-35 99-97 99-61 0-95-36-95-99 0-62 34-99 96-99zm-1 164c35 0 45-28 45-65 0-40-10-65-43-65-34 0-45 26-45 65 0 36 10 65 43 65" id="Q"/><g id="d"><use transform="matrix(0.08641975308641975,0,0,0.08641975308641975,0,0)" xlink:href="#N"/><use transform="matrix(0.08641975308641975,0,0,0.08641975308641975,12.098765432098764,0)" xlink:href="#O"/><use transform="matrix(0.08641975308641975,0,0,0.08641975308641975,29.382716049382715,0)" xlink:href="#P"/><use transform="matrix(0.08641975308641975,0,0,0.08641975308641975,48.30864197530864,0)" xlink:href="#Q"/></g><path fill="#fff" d="M137-138c1-29-70-34-71-4 15 46 118 7 119 86 1 83-164 76-172 9l43-7c4 19 20 25 44 25 33 8 57-30 24-41C81-84 22-81 20-136c-2-80 154-74 161-7" id="R"/><path fill="#fff" d="M115-3C79 11 28 4 28-45v-112H4v-33h27l15-45h31v45h36v33H77v99c-1 23 16 31 38 25v30" id="S"/><path fill="#fff" d="M135-150c-39-12-60 13-60 57V0H25l-1-190h47c2 13-1 29 3 40 6-28 27-53 61-41v41" id="T"/><g id="e"><use transform="matrix(0.08641975308641975,0,0,0.08641975308641975,0,0)" xlink:href="#R"/><use transform="matrix(0.08641975308641975,0,0,0.08641975308641975,17.28395061728395,0)" xlink:href="#S"/><use transform="matrix(0.08641975308641975,0,0,0.08641975308641975,27.5679012345679,0)" xlink:href="#I"/><use transform="matrix(0.08641975308641975,0,0,0.08641975308641975,46.49382716049382,0)" xlink:href="#T"/><use transform="matrix(0.08641975308641975,0,0,0.08641975308641975,58.59259259259259,0)" xlink:href="#G"/></g><path d="M643-90c139 0 229-76 338-166 16 9 25 31 37 45C897-92 790 30 571 30c-244 0-382-164-457-356-62-157-55-393 4-550 62-166 175-290 325-364 173-85 445-50 556 50-6 49-64 89-90 123l-35-6c-75-71-215-142-356-95-201 67-293 270-293 545 0 250 106 418 273 499 49 24 98 34 145 34" id="U"/><path d="M55-880c84-23 173-41 240-80l35 35 13 227c49-98 107-192 201-242 70-37 169-17 226 17 24 78-21 183-43 247h-43c-6-91-72-186-162-126-91 61-140 179-177 306v392c0 10 12 20 37 31s69 21 132 30V0H55v-43c44-10 78-19 103-29s37-21 37-32c-1-212-2-429-2-638 0-85-55-98-138-98v-40" id="V"/><path d="M702-616c0-134-64-239-206-239-165 0-232 127-260 275h428c31-1 38-6 38-36zm158 421C745-83 676 34 465 30 275 26 169-94 112-242c-53-136-32-337 26-447 68-129 169-238 330-265 260-43 390 140 398 397-25 28-71 51-110 67H230c4 167 66 294 174 358 36 21 77 32 122 32 145-2 206-68 297-136 15 7 29 29 37 41" id="W"/><path d="M244-229c1 78 37 129 108 129 118 0 190-59 271-127v-259c-164 29-303 49-363 176-11 23-16 50-16 81zm569 129c39-3 57-10 98-27l15 45C843-27 790 30 702 30c-22 0-40-15-55-46s-23-73-24-127C535-60 444 30 293 30 162 30 80-49 80-186c0-134 64-205 144-260 102-70 238-90 399-115v-141c0-108-55-164-168-158-89 5-163 44-163 136-28 38-109 56-170 57l-14-39c57-113 176-191 306-233 45-14 88-21 130-21 142-2 229 79 229 218v564c0 44 7 73 40 78" id="X"/><path d="M428-100c87 0 139-28 219-68l29 51C580-51 484 30 344 30 211 30 170-79 170-221v-614H41l-21-28 78-67h72v-246l119-104 31 25v325h327l29 29c-27 38-61 78-101 101-58-29-154-39-255-35v528c2 109 2 207 108 207" id="Y"/><path d="M476-842c-113-77-312 26-223 150 100 139 343 151 425 312 15 28 22 60 22 97C696-70 560 30 356 30c-91 0-181-34-250-73-23-59-6-180 7-240l43 11C172-142 267-70 406-70c100 0 164-57 164-157 0-138-150-165-248-222-99-58-218-104-218-251 0-171 126-260 297-260 104 0 202 29 263 77 8 53-30 112-50 150l-39-8c-32-48-67-79-99-101" id="Z"/><g id="f"><use transform="matrix(0.015190972222222222,0,0,0.015190972222222222,0,0)" xlink:href="#U"/><use transform="matrix(0.015190972222222222,0,0,0.015190972222222222,16.6796875,0)" xlink:href="#V"/><use transform="matrix(0.015190972222222222,0,0,0.015190972222222222,28.99956597222222,0)" xlink:href="#W"/><use transform="matrix(0.015190972222222222,0,0,0.015190972222222222,43.37022569444444,0)" xlink:href="#X"/><use transform="matrix(0.015190972222222222,0,0,0.015190972222222222,57.64973958333333,0)" xlink:href="#Y"/><use transform="matrix(0.015190972222222222,0,0,0.015190972222222222,68.359375,0)" xlink:href="#W"/><use transform="matrix(0.015190972222222222,0,0,0.015190972222222222,82.73003472222223,0)" xlink:href="#Z"/></g><path d="M526-1184c-146-27-269 39-269 170 0 120 110 161 199 208 152 80 334 139 402 298 83 195-37 393-168 472-95 58-270 87-402 40-55-20-112-42-157-72-24-61-15-190 0-256l41 5C227-188 319-90 496-90c112 0 188-68 231-144 33-58 30-143-4-195-127-197-460-195-569-413-38-76-28-196 11-264 75-131 238-209 451-177 83 12 161 38 207 85 5 54-50 98-78 133l-36-6c-47-54-103-98-183-113" id="aa"/><g id="g"><use transform="matrix(0.015190972222222222,0,0,0.015190972222222222,0,0)" xlink:href="#aa"/><use transform="matrix(0.015190972222222222,0,0,0.015190972222222222,14.811197916666666,0)" xlink:href="#Y"/><use transform="matrix(0.015190972222222222,0,0,0.015190972222222222,25.520833333333332,0)" xlink:href="#X"/><use transform="matrix(0.015190972222222222,0,0,0.015190972222222222,39.80034722222222,0)" xlink:href="#V"/><use transform="matrix(0.015190972222222222,0,0,0.015190972222222222,52.12022569444444,0)" xlink:href="#Y"/><use transform="matrix(0.015190972222222222,0,0,0.015190972222222222,62.82986111111111,0)" xlink:href="#Z"/></g><path d="M588-1343c-143 0-165 195-127 335 11 42 27 85 47 129 111-70 221-132 221-292 0-98-43-172-141-172zM242-373c0 180 111 283 286 289 121 4 213-44 284-99-145-152-285-324-387-520-93 85-183 165-183 330zm563-360c15-17 50-42 74-51h444l23 36c-30 38-61 63-99 89-47-22-108-36-172-41 27 39 34 89 33 157-4 122-57 223-119 304 74 63 117 127 209 155 29 9 63 5 102-4l9 43c-82 35-150 75-228 75-15 0-40-13-77-40s-79-63-127-109C783-41 660 30 498 30 241 30 80-95 80-352c0-225 159-338 300-447-50-117-92-286-36-424 50-121 139-227 297-227 155 0 227 94 227 246 0 213-171 312-319 408 101 183 233 347 373 491 35-55 65-120 65-197 0-110-58-190-160-203" id="ab"/><use transform="matrix(0.015190972222222222,0,0,0.015190972222222222,0,0)" xlink:href="#ab" id="h"/><path d="M70-1470c101-21 173-37 254-80l36 34v1412c0 10 11 20 34 31s61 21 116 30V0H60v-43c58-11 108-17 142-45 6-5 8-11 8-16v-1192c1-74-10-115-71-124-18-3-41-7-69-10v-40" id="ac"/><path d="M1024-18C930 0 787 36 725-43L345-522v418c3 28 26 30 51 41 14 6 34 12 59 20V0H55v-43c44-11 78-21 103-30s37-19 37-31v-1192c1-74-7-117-69-125-18-3-42-6-71-9v-40c89-19 185-40 253-80l37 34v986l308-269c22-19 35-35 40-47 14-44-42-38-83-41v-43h379v43c-72 10-110 21-160 62L488-552l376 441c31 39 80 57 154 50" id="ad"/><g id="i"><use transform="matrix(0.015190972222222222,0,0,0.015190972222222222,0,0)" xlink:href="#Y"/><use transform="matrix(0.015190972222222222,0,0,0.015190972222222222,10.709635416666666,0)" xlink:href="#X"/><use transform="matrix(0.015190972222222222,0,0,0.015190972222222222,24.989149305555557,0)" xlink:href="#ac"/><use transform="matrix(0.015190972222222222,0,0,0.015190972222222222,33.42013888888889,0)" xlink:href="#ad"/><use transform="matrix(0.015190972222222222,0,0,0.015190972222222222,48.97569444444445,0)" xlink:href="#Z"/></g><path d="M524-80c208-5 271-163 271-375 0-169-81-295-186-363-34-22-69-32-103-32-210 4-271 165-271 377 0 169 87 292 192 361 33 22 66 32 97 32zm182-844c181 81 290 312 227 570C890-178 778-47 614 10 446 69 274-10 194-105 108-206 49-397 96-574c47-176 153-307 318-366 94-34 208-22 292 16" id="ae"/><g id="j"><use transform="matrix(0.015190972222222222,0,0,0.015190972222222222,0,0)" xlink:href="#Y"/><use transform="matrix(0.015190972222222222,0,0,0.015190972222222222,10.709635416666666,0)" xlink:href="#ae"/></g><path d="M355-494c3 248 105 409 350 409 207 0 295-186 295-398v-672c0-8-12-18-36-30s-61-23-109-32v-43h420v43c-45 9-81 20-107 31s-38 22-38 31v631c-6 330-141 554-464 554-304 0-471-165-471-474v-711c0-8-13-18-37-30s-60-23-108-32v-43h450v43c-45 9-80 20-106 31s-39 22-39 31v661" id="af"/><path d="M650-940c160-62 310 29 310 199v637c0 9 10 19 30 28s57 20 110 33V0H670v-43c48-13 83-24 106-33s34-19 34-28v-529c0-115-12-206-128-197-113 9-175 79-242 150-33 35-63 79-95 131v445c0 10 12 20 37 31s60 21 103 30V0H55v-43c44-11 78-22 103-31s37-19 37-30c-2-222 10-452-3-669-4-63-69-56-137-67v-40c94-15 166-44 240-80l35 35 11 249c76-114 178-213 309-264" id="ag"/><path d="M70-880c91-18 181-45 256-80h34v856c0 8 12 18 34 30s57 22 106 31V0H70v-43c45-9 80-20 104-31s36-21 36-30c-1-215 4-437-2-648-2-76-60-79-138-88v-40zm120-340c0-77 41-136 115-136 57 0 85 32 85 95 0 77-41 133-116 137-61 3-84-36-84-96" id="ah"/><path d="M137-946c38 11 72 16 120 16h548l22 43L270-90h422c17 0 32-12 46-38s29-69 44-130l47 10c-1 83-3 175-12 248H102L76-45l555-795H285c-81 7-97 76-117 150l-49-12" id="ai"/><g id="k"><use transform="matrix(0.015190972222222222,0,0,0.015190972222222222,0,0)" xlink:href="#af"/><use transform="matrix(0.015190972222222222,0,0,0.015190972222222222,20.340711805555554,0)" xlink:href="#ag"/><use transform="matrix(0.015190972222222222,0,0,0.015190972222222222,37.506510416666664,0)" xlink:href="#Z"/><use transform="matrix(0.015190972222222222,0,0,0.015190972222222222,49.52256944444444,0)" xlink:href="#W"/><use transform="matrix(0.015190972222222222,0,0,0.015190972222222222,63.893229166666664,0)" xlink:href="#V"/><use transform="matrix(0.015190972222222222,0,0,0.015190972222222222,76.21310763888889,0)" xlink:href="#ah"/><use transform="matrix(0.015190972222222222,0,0,0.015190972222222222,84.64409722222221,0)" xlink:href="#X"/><use transform="matrix(0.015190972222222222,0,0,0.015190972222222222,98.9236111111111,0)" xlink:href="#ac"/><use transform="matrix(0.015190972222222222,0,0,0.015190972222222222,107.35460069444443,0)" xlink:href="#ah"/><use transform="matrix(0.015190972222222222,0,0,0.015190972222222222,115.78559027777776,0)" xlink:href="#ai"/><use transform="matrix(0.015190972222222222,0,0,0.015190972222222222,129.53342013888886,0)" xlink:href="#W"/></g><path d="M537-100c135-1 177-67 264-131l39 41C769-107 717-50 634-4c-84 47-221 46-312 2C175-75 80-225 80-444c0-244 136-395 309-476 134-63 354-48 436 39-1 63-33 121-57 164l-37-10c-42-97-207-161-333-99-111 55-168 180-168 351 0 172 77 291 192 349 37 18 75 26 115 26" id="aj"/><path d="M1253-960c142 3 222 76 222 219v637c0 9 10 19 31 28s57 20 110 33V0h-430v-43c48-13 84-24 106-33s33-19 33-28v-529c-3-110-5-214-113-207s-164 86-224 156c-27 32-53 70-78 111v469c0 9 10 19 31 28s57 20 110 33V0H621v-43c48-13 83-24 105-33s34-19 34-28v-529c-2-111-4-208-113-207-45 0-93 23-143 70S402-658 345-573v469c0 10 12 20 37 31s60 21 103 30V0H55v-43c44-11 78-22 103-31s37-19 37-30c-2-223 12-454-3-670-4-60-71-54-137-66v-40c94-15 168-44 240-80l35 35 11 229c73-105 152-197 269-248 28-12 54-16 78-16 159-1 228 90 222 256 70-102 150-191 264-240 28-12 54-16 79-16" id="ak"/><path d="M600-1485c99-12 185-40 264-65l31 30c1 442-9 888 1 1326 1 47 0 102 56 94 17-3 46-12 86-27l13 43C976-39 923 30 829 30c-22 0-40-15-54-45s-23-81-28-154C662-73 586 30 416 30c-165 0-251-137-304-275-51-133-34-327 28-435 84-144 195-280 411-280 87 0 134 18 194 63-2-152 5-318-3-465-4-76-62-77-142-84v-39zM487-100c124 0 184-97 258-161v-469c-39-70-122-120-225-120-208 0-290 158-290 375 0 165 69 286 170 349 30 19 60 26 87 26" id="al"/><g id="l"><use transform="matrix(0.015190972222222222,0,0,0.015190972222222222,0,0)" xlink:href="#aj"/><use transform="matrix(0.015190972222222222,0,0,0.015190972222222222,13.59592013888889,0)" xlink:href="#ae"/><use transform="matrix(0.015190972222222222,0,0,0.015190972222222222,29.24262152777778,0)" xlink:href="#ak"/><use transform="matrix(0.015190972222222222,0,0,0.015190972222222222,54.23177083333333,0)" xlink:href="#ak"/><use transform="matrix(0.015190972222222222,0,0,0.015190972222222222,79.22092013888889,0)" xlink:href="#X"/><use transform="matrix(0.015190972222222222,0,0,0.015190972222222222,93.50043402777777,0)" xlink:href="#ag"/><use transform="matrix(0.015190972222222222,0,0,0.015190972222222222,110.66623263888889,0)" xlink:href="#al"/><use transform="matrix(0.015190972222222222,0,0,0.015190972222222222,126.84461805555556,0)" xlink:href="#Z"/></g><g id="m"><use transform="matrix(0.015190972222222222,0,0,0.015190972222222222,0,0)" xlink:href="#X"/><use transform="matrix(0.015190972222222222,0,0,0.015190972222222222,14.27951388888889,0)" xlink:href="#ag"/><use transform="matrix(0.015190972222222222,0,0,0.015190972222222222,31.4453125,0)" xlink:href="#al"/></g><path d="M514-400c110 0 176-82 176-200 0-166-103-260-274-260-106 0-176 85-176 201 0 168 101 259 274 259zM392 378c206 50 428-17 428-221 0-87-73-105-152-128C598 9 468 2 388-16c-76 41-128 76-176 126-40 42-42 111-4 160 41 53 107 89 184 108zM775-813c59 73 75 219 21 313-68 117-190 200-366 205-43 36-68 61-84 99 14 50 70 52 128 66 83 20 239 29 308 56 99 38 188 77 188 194 0 182-136 265-268 330-178 88-489 47-600-64-47-46-97-127-62-212C84 67 186 21 297-42c-66-25-106-47-115-111 21-77 83-108 144-156-131-40-226-128-226-293 0-172 116-273 243-330 114-51 271-27 350 37 106-10 195-34 276-65l20 30c-18 41-27 68-57 100-53 10-96 14-157 17" id="am"/><g id="n"><use transform="matrix(0.015190972222222222,0,0,0.015190972222222222,0,0)" xlink:href="#al"/><use transform="matrix(0.015190972222222222,0,0,0.015190972222222222,16.178385416666668,0)" xlink:href="#W"/><use transform="matrix(0.015190972222222222,0,0,0.015190972222222222,30.54904513888889,0)" xlink:href="#ac"/><use transform="matrix(0.015190972222222222,0,0,0.015190972222222222,38.98003472222222,0)" xlink:href="#W"/><use transform="matrix(0.015190972222222222,0,0,0.015190972222222222,53.35069444444444,0)" xlink:href="#am"/><use transform="matrix(0.015190972222222222,0,0,0.015190972222222222,68.52647569444444,0)" xlink:href="#X"/><use transform="matrix(0.015190972222222222,0,0,0.015190972222222222,82.80598958333333,0)" xlink:href="#Y"/><use transform="matrix(0.015190972222222222,0,0,0.015190972222222222,93.515625,0)" xlink:href="#W"/></g><g id="o"><use transform="matrix(0.015190972222222222,0,0,0.015190972222222222,0,0)" xlink:href="#Y"/><use transform="matrix(0.015190972222222222,0,0,0.015190972222222222,10.709635416666666,0)" xlink:href="#ae"/></g><path d="M684-90c146 10 180-66 217-172l43 18c-7 89-24 179-41 244H50v-43c45-9 80-20 106-31s39-21 39-30v-1051c0-8-13-18-37-30s-60-23-108-32v-43h450v43c-45 9-80 20-106 31s-39 22-39 31v991c9 77 99 74 186 74h143" id="an"/><g id="p"><use transform="matrix(0.015190972222222222,0,0,0.015190972222222222,0,0)" xlink:href="#an"/><use transform="matrix(0.015190972222222222,0,0,0.015190972222222222,14.811197916666666,0)" xlink:href="#ae"/><use transform="matrix(0.015190972222222222,0,0,0.015190972222222222,30.457899305555557,0)" xlink:href="#X"/><use transform="matrix(0.015190972222222222,0,0,0.015190972222222222,44.73741319444444,0)" xlink:href="#al"/><use transform="matrix(0.015190972222222222,0,0,0.015190972222222222,60.915798611111114,0)" xlink:href="#Z"/></g><path d="M637-901c-26 37-60 77-98 101-49-23-102-36-189-35v733c20 27 66 28 110 40 26 7 60 12 99 19V0H60v-43c46-8 80-17 104-29s36-22 36-30v-733H66l-21-28 78-67h77c-4-206 28-357 123-458 76-80 165-162 306-162 70 0 128 40 170 71 45 34-12 63-31 82-20 20-53 42-78 54-47-38-97-74-170-82-101 14-128 103-153 206-17 68-18 189-17 289h258" id="ao"/><g id="q"><use transform="matrix(0.015190972222222222,0,0,0.015190972222222222,0,0)" xlink:href="#ao"/><use transform="matrix(0.015190972222222222,0,0,0.015190972222222222,9.676649305555555,0)" xlink:href="#V"/><use transform="matrix(0.015190972222222222,0,0,0.015190972222222222,21.99652777777778,0)" xlink:href="#ae"/><use transform="matrix(0.015190972222222222,0,0,0.015190972222222222,37.64322916666667,0)" xlink:href="#ak"/></g><path d="M750-971c0-203-179-243-395-233v479c223 3 395-42 395-246zm102 649c0-198-123-323-332-328-61-2-114 7-165 15v531c9 29 60 26 93 30 219 24 404-45 404-248zM715-723c175 42 301 161 301 367 0 256-195 365-457 370C385 17 226 0 50 0v-43c45-9 80-20 106-31s39-21 39-30v-1086c-49 6-98 14-145 22l-9-62c252-70 710-117 833 97 20 33 31 71 31 113 1 149-79 256-190 297" id="ap"/><path d="M953-637c0-380-192-600-598-566v1049c2 43 22 54 64 62 81 16 187 12 261-26 167-87 273-261 273-519zM41-1230c204-49 518-97 728-18 221 83 354 271 354 572 0 362-159 580-441 660C639-4 598 0 559 0H50v-43c45-9 80-20 106-31s39-21 39-30v-1084c-50 6-98 13-145 20" id="aq"/><g id="r"><use transform="matrix(0.015190972222222222,0,0,0.015190972222222222,0,0)" xlink:href="#ap"/><use transform="matrix(0.015190972222222222,0,0,0.015190972222222222,17.10503472222222,0)" xlink:href="#ae"/><use transform="matrix(0.015190972222222222,0,0,0.015190972222222222,32.751736111111114,0)" xlink:href="#ac"/><use transform="matrix(0.015190972222222222,0,0,0.015190972222222222,41.18272569444445,0)" xlink:href="#Y"/><use transform="matrix(0.015190972222222222,0,0,0.015190972222222222,51.892361111111114,0)" xlink:href="#aq"/><use transform="matrix(0.015190972222222222,0,0,0.015190972222222222,70.33420138888889,0)" xlink:href="#ap"/></g><g id="s"><use transform="matrix(0.015190972222222222,0,0,0.015190972222222222,0,0)" xlink:href="#an"/><use transform="matrix(0.015190972222222222,0,0,0.015190972222222222,14.811197916666666,0)" xlink:href="#ae"/><use transform="matrix(0.015190972222222222,0,0,0.015190972222222222,30.457899305555557,0)" xlink:href="#X"/><use transform="matrix(0.015190972222222222,0,0,0.015190972222222222,44.73741319444444,0)" xlink:href="#al"/><use transform="matrix(0.015190972222222222,0,0,0.015190972222222222,60.915798611111114,0)" xlink:href="#Z"/></g><g id="t"><use transform="matrix(0.08641975308641975,0,0,0.08641975308641975,0,0)" xlink:href="#M"/><use transform="matrix(0.08641975308641975,0,0,0.08641975308641975,8.641975308641975,0)" xlink:href="#H"/></g><path fill="#fff" d="M67-93c0 74 22 123 53 168H70C40 30 18-18 18-93s22-123 52-168h50c-32 44-53 94-53 168" id="ar"/><path fill="#fff" d="M182 0l-62-99L58 0H3l86-130-79-118h55l55 88 55-88h55l-75 118L237 0h-55" id="as"/><path fill="#fff" d="M230 0l2-204L168 0h-37L68-204 70 0H24v-248h70l56 185 57-185h69V0h-46" id="at"/><path fill="#fff" d="M24-248c93 1 206-16 204 79-1 75-69 88-152 82V0H24v-248zm52 121c47 0 100 7 100-41 0-47-54-39-100-39v80" id="au"/><g id="u"><use transform="matrix(0.08641975308641975,0,0,0.08641975308641975,0,0)" xlink:href="#ar"/><use transform="matrix(0.08641975308641975,0,0,0.08641975308641975,10.28395061728395,0)" xlink:href="#as"/><use transform="matrix(0.08641975308641975,0,0,0.08641975308641975,31.02469135802469,0)" xlink:href="#at"/><use transform="matrix(0.08641975308641975,0,0,0.08641975308641975,56.864197530864196,0)" xlink:href="#au"/><use transform="matrix(0.08641975308641975,0,0,0.08641975308641975,77.60493827160494,0)" xlink:href="#au"/></g><path fill="#fff" d="M67-125c0 53 21 87 73 88 37 1 54-22 65-47l45 17C233-25 199 4 140 4 58 4 20-42 15-125 8-235 124-281 211-232c18 10 29 29 36 50l-46 12c-8-25-30-41-62-41-52 0-71 34-72 86" id="av"/><path fill="#fff" d="M102-93c0 74-22 123-52 168H0C30 29 54-18 53-93c0-74-22-123-53-168h50c30 45 52 94 52 168" id="aw"/><g id="v"><use transform="matrix(0.08641975308641975,0,0,0.08641975308641975,0,0)" xlink:href="#av"/><use transform="matrix(0.08641975308641975,0,0,0.08641975308641975,22.382716049382715,0)" xlink:href="#L"/><use transform="matrix(0.08641975308641975,0,0,0.08641975308641975,31.02469135802469,0)" xlink:href="#M"/><use transform="matrix(0.08641975308641975,0,0,0.08641975308641975,39.666666666666664,0)" xlink:href="#G"/><use transform="matrix(0.08641975308641975,0,0,0.08641975308641975,56.95061728395061,0)" xlink:href="#J"/><use transform="matrix(0.08641975308641975,0,0,0.08641975308641975,75.87654320987653,0)" xlink:href="#S"/><use transform="matrix(0.08641975308641975,0,0,0.08641975308641975,86.16049382716048,0)" xlink:href="#aw"/></g><path d="M758-535l-176-514-171 514h347zm-377 90L270-111c-7 21 2 36 27 45s64 17 119 23V0H0v-43c72-17 140-14 158-68l372-1126c26-31 81-60 117-80l420 1206c17 49 70 59 131 68V0H776v-43c52-3 88-10 108-20s26-26 19-48L789-445H381" id="ax"/><g id="w"><use transform="matrix(0.015190972222222222,0,0,0.015190972222222222,0,0)" xlink:href="#ax"/><use transform="matrix(0.015190972222222222,0,0,0.015190972222222222,18.51779513888889,0)" xlink:href="#aj"/><use transform="matrix(0.015190972222222222,0,0,0.015190972222222222,32.11371527777778,0)" xlink:href="#Y"/><use transform="matrix(0.015190972222222222,0,0,0.015190972222222222,42.82335069444444,0)" xlink:href="#Z"/></g><g id="x"><use transform="matrix(0.015190972222222222,0,0,0.015190972222222222,0,0)" xlink:href="#X"/><use transform="matrix(0.015190972222222222,0,0,0.015190972222222222,14.27951388888889,0)" xlink:href="#Z"/></g><path d="M688-90c147 7 186-65 223-172l43 18c-7 88-25 180-41 244H50v-43c45-9 80-20 106-31s39-21 39-30v-1051c0-8-13-18-37-30s-60-23-108-32v-43h806l33 25c-6 79-22 159-41 225h-45c-7-78-7-160-82-160H355v435h405l26 28c-25 40-56 82-92 111-60-70-209-53-339-55v497c3 49 47 53 98 60 61 8 162 1 235 4" id="ay"/><g id="y"><use transform="matrix(0.015190972222222222,0,0,0.015190972222222222,0,0)" xlink:href="#ay"/><use transform="matrix(0.015190972222222222,0,0,0.015190972222222222,15.434027777777777,0)" xlink:href="#ak"/><use transform="matrix(0.015190972222222222,0,0,0.015190972222222222,40.42317708333333,0)" xlink:href="#ah"/><use transform="matrix(0.015190972222222222,0,0,0.015190972222222222,48.854166666666664,0)" xlink:href="#Y"/><use transform="matrix(0.015190972222222222,0,0,0.015190972222222222,59.56380208333333,0)" xlink:href="#Z"/></g><g id="z"><use transform="matrix(0.015190972222222222,0,0,0.015190972222222222,0,0)" xlink:href="#X"/><use transform="matrix(0.015190972222222222,0,0,0.015190972222222222,14.27951388888889,0)" xlink:href="#ag"/><use transform="matrix(0.015190972222222222,0,0,0.015190972222222222,31.4453125,0)" xlink:href="#al"/></g><path d="M989-887c-52 13-92 20-110 68L596-59c-22 51-77 75-135 89L131-819c-17-46-54-54-111-68v-43h386v43c-42 6-74 10-102 23-18 10-19 23-11 45l246 641 231-641c16-61-51-55-104-68v-43h323v43" id="az"/><g id="A"><use transform="matrix(0.015190972222222222,0,0,0.015190972222222222,0,0)" xlink:href="#V"/><use transform="matrix(0.015190972222222222,0,0,0.015190972222222222,12.319878472222221,0)" xlink:href="#W"/><use transform="matrix(0.015190972222222222,0,0,0.015190972222222222,26.690538194444443,0)" xlink:href="#aj"/><use transform="matrix(0.015190972222222222,0,0,0.015190972222222222,40.28645833333333,0)" xlink:href="#W"/><use transform="matrix(0.015190972222222222,0,0,0.015190972222222222,54.65711805555555,0)" xlink:href="#ah"/><use transform="matrix(0.015190972222222222,0,0,0.015190972222222222,63.088107638888886,0)" xlink:href="#az"/><use transform="matrix(0.015190972222222222,0,0,0.015190972222222222,78.43098958333333,0)" xlink:href="#W"/><use transform="matrix(0.015190972222222222,0,0,0.015190972222222222,92.80164930555554,0)" xlink:href="#Z"/></g><g id="B"><use transform="matrix(0.015190972222222222,0,0,0.015190972222222222,0,0)" xlink:href="#W"/><use transform="matrix(0.015190972222222222,0,0,0.015190972222222222,14.370659722222221,0)" xlink:href="#az"/><use transform="matrix(0.015190972222222222,0,0,0.015190972222222222,29.713541666666664,0)" xlink:href="#W"/><use transform="matrix(0.015190972222222222,0,0,0.015190972222222222,44.084201388888886,0)" xlink:href="#ag"/><use transform="matrix(0.015190972222222222,0,0,0.015190972222222222,61.25,0)" xlink:href="#Y"/><use transform="matrix(0.015190972222222222,0,0,0.015190972222222222,71.95963541666667,0)" xlink:href="#Z"/></g><path fill="#fff" d="M14-72v-43h91v43H14" id="aA"/><g id="C"><use transform="matrix(0.07407407407407408,0,0,0.07407407407407408,0,0)" xlink:href="#av"/><use transform="matrix(0.07407407407407408,0,0,0.07407407407407408,19.185185185185187,0)" xlink:href="#L"/><use transform="matrix(0.07407407407407408,0,0,0.07407407407407408,26.592592592592595,0)" xlink:href="#M"/><use transform="matrix(0.07407407407407408,0,0,0.07407407407407408,34,0)" xlink:href="#G"/><use transform="matrix(0.07407407407407408,0,0,0.07407407407407408,48.81481481481481,0)" xlink:href="#J"/><use transform="matrix(0.07407407407407408,0,0,0.07407407407407408,65.03703703703704,0)" xlink:href="#S"/><use transform="matrix(0.07407407407407408,0,0,0.07407407407407408,73.85185185185185,0)" xlink:href="#aA"/><use transform="matrix(0.07407407407407408,0,0,0.07407407407407408,82.66666666666666,0)" xlink:href="#R"/><use transform="matrix(0.07407407407407408,0,0,0.07407407407407408,97.48148148148147,0)" xlink:href="#M"/><use transform="matrix(0.07407407407407408,0,0,0.07407407407407408,104.88888888888887,0)" xlink:href="#E"/><use transform="matrix(0.07407407407407408,0,0,0.07407407407407408,121.1111111111111,0)" xlink:href="#G"/></g><path fill="#fff" d="M169-182c-1-43-94-46-97-3 18 66 151 10 154 114 3 95-165 93-204 36-6-8-10-19-12-30l50-8c3 46 112 56 116 5-17-69-150-10-154-114-4-87 153-88 188-35 5 8 8 18 10 28" id="aB"/><path fill="#fff" d="M128 0H69L1-190h53L99-40l48-150h52" id="aC"/><g id="D"><use transform="matrix(0.07407407407407408,0,0,0.07407407407407408,0,0)" xlink:href="#aB"/><use transform="matrix(0.07407407407407408,0,0,0.07407407407407408,17.77777777777778,0)" xlink:href="#G"/><use transform="matrix(0.07407407407407408,0,0,0.07407407407407408,32.592592592592595,0)" xlink:href="#T"/><use transform="matrix(0.07407407407407408,0,0,0.07407407407407408,42.96296296296297,0)" xlink:href="#aC"/><use transform="matrix(0.07407407407407408,0,0,0.07407407407407408,57.777777777777786,0)" xlink:href="#G"/><use transform="matrix(0.07407407407407408,0,0,0.07407407407407408,72.59259259259261,0)" xlink:href="#T"/><use transform="matrix(0.07407407407407408,0,0,0.07407407407407408,82.96296296296298,0)" xlink:href="#aA"/><use transform="matrix(0.07407407407407408,0,0,0.07407407407407408,91.7777777777778,0)" xlink:href="#R"/><use transform="matrix(0.07407407407407408,0,0,0.07407407407407408,106.59259259259261,0)" xlink:href="#M"/><use transform="matrix(0.07407407407407408,0,0,0.07407407407407408,114.00000000000001,0)" xlink:href="#E"/><use transform="matrix(0.07407407407407408,0,0,0.07407407407407408,130.22222222222223,0)" xlink:href="#G"/></g></defs></g></svg>